<svg xmlns="http://www.w3.org/2000/svg" viewBox="0 0 500 340" width="500" height="340">
  <defs>
    <linearGradient id="bg_69593" x1="0%" y1="0%" x2="100%" y2="100%">
      <stop offset="0%" style="stop-color:#0a0a0e"/>
      <stop offset="100%" style="stop-color:#1a0e16"/>
    </linearGradient>
  </defs>
  <rect width="500" height="340" fill="url(#bg_69593)"/>
  <circle cx="407.29934035334736" cy="80.36326009314507" r="89.9540656991303" fill="#ca8a04" opacity="0.12647923096083105"/>
  <circle cx="39.63077417574823" cy="92.8554427716881" r="42.05805776640773" fill="#ca8a04" opacity="0.13593358621001245"/>
  <rect x="248.20500542409718" y="136.6328079579398" width="92.1173607185483" height="92.1173607185483" fill="#ca8a04" opacity="0.10361131457611919" transform="rotate(9.276973408414051,248.20500542409718,136.6328079579398)"/>
  <rect x="3.883133875206113" y="327.26363925728947" width="86.91269604489207" height="86.91269604489207" fill="#e11d48" opacity="0.14386324197985234" transform="rotate(43.456981239141896,3.883133875206113,327.26363925728947)"/>
  <rect x="55.81912130583078" y="239.89844540599734" width="29.12141166627407" height="29.12141166627407" fill="#e11d48" opacity="0.07709849642124028" transform="rotate(37.064488786272705,55.81912130583078,239.89844540599734)"/>
  <circle cx="250.39075186941773" cy="227.2129381261766" r="70.91652747243643" fill="#ca8a04" opacity="0.05283718721475453"/>
  <circle cx="93.68804609403014" cy="197.34431826043874" r="63.7446154654026" fill="#e11d48" opacity="0.13343244071584195"/>
  <circle cx="358.72250085230917" cy="47.75673553813249" r="37.47258748859167" fill="#ca8a04" opacity="0.050964144384488465"/>
  <rect x="67.06652184948325" y="230.46099283266813" width="92.43666710332036" height="92.43666710332036" fill="#ca8a04" opacity="0.07808716099243612" transform="rotate(17.8997311857529,67.06652184948325,230.46099283266813)"/>
  <rect x="460.6633496005088" y="2.1466933842748404" width="20.43123310431838" height="20.43123310431838" fill="#ca8a04" opacity="0.09626042130403221" transform="rotate(18.87690905830823,460.6633496005088,2.1466933842748404)"/>
  <circle cx="241.2532176822424" cy="205.5796572053805" r="26.928750351071358" fill="#ca8a04" opacity="0.06065019883681089"/>
  <circle cx="460.90709790587425" cy="168.42364738229662" r="58.45771064981818" fill="#e11d48" opacity="0.050487698055803776"/>
  <circle cx="408.0729470588267" cy="233.2908790754154" r="1.0429554437287152" fill="#fff" opacity="0.604905647970736"/>
  <circle cx="385.8606074936688" cy="154.80712910974398" r="2.422233617864549" fill="#fff" opacity="0.36050840879324825"/>
  <circle cx="304.10761083476245" cy="229.717594563961" r="2.4044146817177534" fill="#fff" opacity="0.3227401487994939"/>
  <circle cx="348.04332081694156" cy="103.9180173324421" r="1.960147846955806" fill="#fff" opacity="0.6476150419795885"/>
  <circle cx="347.9240882443264" cy="144.2352728601545" r="1.833186007104814" fill="#fff" opacity="0.2308285807259381"/>
  <circle cx="211.97991096414626" cy="173.9539500484243" r="1.8986734272912145" fill="#fff" opacity="0.4435246933018789"/>
  <circle cx="156.658832449466" cy="162.40481430385262" r="1.8040580926463008" fill="#fff" opacity="0.23561402624472977"/>
  <circle cx="193.8214332330972" cy="146.9570899568498" r="0.5234604929573834" fill="#fff" opacity="0.5595464165555313"/>
  <circle cx="260.06625534500927" cy="142.47241039341316" r="0.5891671814024448" fill="#fff" opacity="0.23225797542836518"/>
  <circle cx="471.6615774668753" cy="1.183685915544629" r="1.6192960310727358" fill="#fff" opacity="0.34870925422292204"/>
  <circle cx="469.2503480473533" cy="228.05543052544814" r="0.7451201980002224" fill="#fff" opacity="0.5419368866598233"/>
  <rect x="0" y="311" width="500" height="29" fill="#0a0a14"/>
  <ellipse cx="429.51247468590736" cy="316" rx="31.6639316896908" ry="4" fill="#ca8a04" opacity="0.13208601751364768"/>
  <ellipse cx="487.7519573783502" cy="316" rx="62.78921653749421" ry="4" fill="#ca8a04" opacity="0.11646262338384986"/>
  <ellipse cx="365.0904825190082" cy="316" rx="23.104720974806696" ry="4" fill="#ca8a04" opacity="0.2140624381043017"/>
  <ellipse cx="106.1943011591211" cy="316" rx="21.38287857407704" ry="4" fill="#e11d48" opacity="0.11312025204300881"/>
  <ellipse cx="151.47737180814147" cy="316" rx="47.57126718061045" ry="4" fill="#e11d48" opacity="0.19763155022636056"/>
  <g transform="translate(154.37398005432138,292.42593321716413) scale(1.1539519901387394)">
    <ellipse cx="0" cy="-52" rx="9" ry="11" fill="#ca8a04"/>
    <path d="M-3,-63 Q-10,-58 -6,-50" stroke="#ca8a04" stroke-width="3" fill="none" stroke-linecap="round"/>
     <circle cx="2" cy="-68" r="6" fill="#ca8a04" opacity="0.8"/>
     <path d="M2,-63 Q8,-60 5,-52" stroke="#ca8a04" stroke-width="2.5" fill="none" stroke-linecap="round"/>
    <path d="M-7,-41 Q-9,-25 -7,-15 L7,-15 Q9,-25 7,-41 Z" fill="#e11d48"/>
     <path d="M-8,-12 Q-10,5 -14,28 L14,28 Q10,5 8,-12 Z" fill="#ca8a04" opacity="0.8"/>
    <line x1="-2" y1="25" x2="-6" y2="60" stroke="#ca8a04" stroke-width="3" stroke-linecap="round"/>
    <line x1="2" y1="25" x2="10" y2="60" stroke="#ca8a04" stroke-width="3" stroke-linecap="round"/>
    <ellipse cx="-6" cy="62" rx="6" ry="2.5" fill="#e11d48" opacity="0.7"/>
    <ellipse cx="10" cy="62" rx="6" ry="2.5" fill="#e11d48" opacity="0.7"/>
    <line x1="-8" y1="-30" x2="-22" y2="-15" stroke="#ca8a04" stroke-width="2.5" stroke-linecap="round"/>
    <line x1="8" y1="-30" x2="22" y2="-38" stroke="#ca8a04" stroke-width="2.5" stroke-linecap="round"/>
    <polygon points="22,-42 18,-34 26,-34" fill="#e11d48" opacity="0.6" stroke="#e11d48" stroke-width="0.5"/>
    <line x1="22" y1="-34" x2="22" y2="-28" stroke="#e11d48" stroke-width="1"/>
    <line x1="19" y1="-28" x2="25" y2="-28" stroke="#e11d48" stroke-width="1"/>
  </g><g transform="translate(346.1605135917974,265.2559182862751) scale(1.1756776941008866)">
    <ellipse cx="0" cy="-52" rx="9" ry="11" fill="#e11d48"/>
    <path d="M-3,-63 Q-14,-52 -10,-38 L-12,-30" stroke="#e11d48" stroke-width="4" fill="none" stroke-linecap="round"/>
     <path d="M2,-63 Q12,-50 10,-36 L11,-28" stroke="#e11d48" stroke-width="3.5" fill="none" stroke-linecap="round"/>
    <path d="M-8,-41 Q-10,-20 -6,0 Q-4,10 -2,20 L2,20 Q4,10 6,0 Q10,-20 8,-41 Z" fill="#ca8a04"/>
     <rect x="-9" y="-42" width="18" height="4" rx="1" fill="#e11d48" opacity="0.5"/>
    <line x1="-2" y1="25" x2="-8" y2="60" stroke="#e11d48" stroke-width="3" stroke-linecap="round"/>
    <line x1="2" y1="25" x2="8" y2="60" stroke="#e11d48" stroke-width="3" stroke-linecap="round"/>
    <ellipse cx="-8" cy="62" rx="6" ry="2.5" fill="#ca8a04" opacity="0.7"/>
    <ellipse cx="8" cy="62" rx="6" ry="2.5" fill="#ca8a04" opacity="0.7"/>
    <line x1="-8" y1="-30" x2="-20" y2="-5" stroke="#e11d48" stroke-width="2.5" stroke-linecap="round"/>
    <line x1="8" y1="-30" x2="28" y2="-25" stroke="#e11d48" stroke-width="2.5" stroke-linecap="round"/>
    
  </g>
  <rect x="430" y="12" width="58" height="22" rx="4" fill="#ca8a04" opacity="0.8"/>
  <text x="459" y="28" text-anchor="middle" font-family="sans-serif" font-size="10" font-weight="700" fill="#fff">NIGHT</text>
  <rect x="75" y="26" width="350" height="30" rx="6" fill="#0a0a0e" opacity="0.7" stroke="#ca8a04" stroke-width="1.5"/>
  <text x="250" y="46" text-anchor="middle" font-family="sans-serif" font-size="14" font-weight="700" fill="#ca8a04" opacity="0.9">잠실 헐리우드 나이트</text>
</svg>