<svg xmlns="http://www.w3.org/2000/svg" viewBox="0 0 500 340" width="500" height="340">
  <defs>
    <linearGradient id="sky1" x1="0%" y1="0%" x2="0%" y2="100%">
      <stop offset="0%" style="stop-color:#0a0a1a"/>
      <stop offset="100%" style="stop-color:#1a1a3e"/>
    </linearGradient>
  </defs>
  <rect width="500" height="340" fill="url(#sky1)"/>
  <rect x="35.8468334376812" y="115.13946069870144" width="82.9155563376844" height="204.86053930129856" fill="#1a1a2e" opacity="0.5137569168815389" rx="3"/><rect x="151.94096186663955" y="108.19408356677741" width="79.51668447814882" height="211.8059164332226" fill="#1a1a2e" opacity="0.6904048829106615" rx="3"/><rect x="261.79441585671157" y="121.04816279374063" width="74.14187491871417" height="198.95183720625937" fill="#1a1a2e" opacity="0.5500463305506855" rx="3"/><rect x="372.18616782920435" y="174.1015809448436" width="82.63823281042278" height="145.8984190551564" fill="#1a1a2e" opacity="0.5542311425320804" rx="3"/>
  <rect x="170" y="60" width="160" height="40" rx="8" fill="#1a1a2e" stroke="#06b6d4" stroke-width="2"/>
  <text x="250" y="87" text-anchor="middle" font-family="sans-serif" font-size="16" font-weight="700" fill="#06b6d4" opacity="0.8">NIGHT</text>
  <circle cx="369.240119215101" cy="211.36965210549533" r="17.385826917598024" fill="#06b6d4" opacity="0.11351710501592606"/><circle cx="318.2862672023475" cy="163.26379188336432" r="8.869013005169109" fill="#8b5cf6" opacity="0.061644048672169445"/><circle cx="184.14264833554626" cy="180.48015273176134" r="18.127892336342484" fill="#06b6d4" opacity="0.11014868941158056"/><circle cx="380.962579511106" cy="61.1540244333446" r="10.92822034144774" fill="#06b6d4" opacity="0.08598113584332168"/><circle cx="163.98334819823503" cy="61.4680165797472" r="10.528200208209455" fill="#06b6d4" opacity="0.061041360120289025"/>
  <rect x="0" y="310" width="500" height="30" fill="#121225"/>
  <ellipse cx="262.55636946763843" cy="315" rx="58.656012086430565" ry="5" fill="#06b6d4" opacity="0.18143409525975585"/><ellipse cx="132.26892010774463" cy="315" rx="33.71501769404858" ry="5" fill="#06b6d4" opacity="0.20756699939258397"/><ellipse cx="200.0886845216155" cy="315" rx="54.707799199968576" ry="5" fill="#06b6d4" opacity="0.2118034298112616"/>
  <g transform="translate(142.4246014514938,245) scale(0.9655478871893138)">
    <ellipse cx="0" cy="-52" rx="9" ry="11" fill="#06b6d4"/>
    <path d="M3,-63 Q14,-50 8,-24.131294303108007" stroke="#06b6d4" stroke-width="3" fill="none" stroke-linecap="round"/>
    <path d="M-2,-63 Q-8,-48 -4,-27.131294303108007" stroke="#06b6d4" stroke-width="2.5" fill="none" stroke-linecap="round"/>
    <path d="M-8,-41 Q-10,-20 -6,0 Q-2,15 0,25 Q2,15 6,0 Q10,-20 8,-41 Z" fill="#06b6d4"/>
    <path d="M-6,0 Q-12,10 -8,25 L0,25 Z" fill="#8b5cf6" opacity="0.3"/>
    <path d="M6,0 Q12,10 8,25 L0,25 Z" fill="#8b5cf6" opacity="0.3"/>
    <line x1="-2" y1="25" x2="-8" y2="60" stroke="#06b6d4" stroke-width="3" stroke-linecap="round"/>
    <line x1="2" y1="25" x2="8" y2="60" stroke="#06b6d4" stroke-width="3" stroke-linecap="round"/>
    <ellipse cx="-9" cy="62" rx="5" ry="2" fill="#8b5cf6" opacity="0.6"/>
    <ellipse cx="9" cy="62" rx="5" ry="2" fill="#8b5cf6" opacity="0.6"/>
    <line x1="-8" y1="-30" x2="-18.446673477999866" y2="11.003148116869852" stroke="#06b6d4" stroke-width="2.5" stroke-linecap="round"/>
    <line x1="8" y1="-30" x2="19.435275115072727" y2="-4.102892372757196" stroke="#06b6d4" stroke-width="2.5" stroke-linecap="round"/>
  </g><g transform="translate(267.80853594187647,240) scale(1.0002410277258604)">
    <ellipse cx="0" cy="-52" rx="9" ry="11" fill="#8b5cf6"/>
    <path d="M3,-63 Q14,-50 8,-25.307107404107228" stroke="#8b5cf6" stroke-width="3" fill="none" stroke-linecap="round"/>
    <path d="M-2,-63 Q-8,-48 -4,-28.307107404107228" stroke="#8b5cf6" stroke-width="2.5" fill="none" stroke-linecap="round"/>
    <path d="M-8,-41 Q-10,-20 -6,0 Q-2,15 0,25 Q2,15 6,0 Q10,-20 8,-41 Z" fill="#8b5cf6"/>
    <path d="M-6,0 Q-12,10 -8,25 L0,25 Z" fill="#06b6d4" opacity="0.3"/>
    <path d="M6,0 Q12,10 8,25 L0,25 Z" fill="#06b6d4" opacity="0.3"/>
    <line x1="-2" y1="25" x2="-8" y2="60" stroke="#8b5cf6" stroke-width="3" stroke-linecap="round"/>
    <line x1="2" y1="25" x2="8" y2="60" stroke="#8b5cf6" stroke-width="3" stroke-linecap="round"/>
    <ellipse cx="-9" cy="62" rx="5" ry="2" fill="#06b6d4" opacity="0.6"/>
    <ellipse cx="9" cy="62" rx="5" ry="2" fill="#06b6d4" opacity="0.6"/>
    <line x1="-8" y1="-30" x2="-22.194528369698673" y2="-3.7526732333935797" stroke="#8b5cf6" stroke-width="2.5" stroke-linecap="round"/>
    <line x1="8" y1="-30" x2="23.845178570598364" y2="-6.745148035697639" stroke="#8b5cf6" stroke-width="2.5" stroke-linecap="round"/>
  </g><g transform="translate(380.2038936736062,248) scale(0.8585902694612741)">
    <ellipse cx="0" cy="-52" rx="9" ry="11" fill="#06b6d4"/>
    <path d="M3,-63 Q14,-50 8,-14.145248854067177" stroke="#06b6d4" stroke-width="3" fill="none" stroke-linecap="round"/>
    <path d="M-2,-63 Q-8,-48 -4,-17.145248854067177" stroke="#06b6d4" stroke-width="2.5" fill="none" stroke-linecap="round"/>
    <path d="M-8,-41 Q-10,-20 -6,0 Q-2,15 0,25 Q2,15 6,0 Q10,-20 8,-41 Z" fill="#06b6d4"/>
    <path d="M-6,0 Q-12,10 -8,25 L0,25 Z" fill="#8b5cf6" opacity="0.3"/>
    <path d="M6,0 Q12,10 8,25 L0,25 Z" fill="#8b5cf6" opacity="0.3"/>
    <line x1="-2" y1="25" x2="-8" y2="60" stroke="#06b6d4" stroke-width="3" stroke-linecap="round"/>
    <line x1="2" y1="25" x2="8" y2="60" stroke="#06b6d4" stroke-width="3" stroke-linecap="round"/>
    <ellipse cx="-9" cy="62" rx="5" ry="2" fill="#8b5cf6" opacity="0.6"/>
    <ellipse cx="9" cy="62" rx="5" ry="2" fill="#8b5cf6" opacity="0.6"/>
    <line x1="-8" y1="-30" x2="-27.50969470432028" y2="13.470273445127532" stroke="#06b6d4" stroke-width="2.5" stroke-linecap="round"/>
    <line x1="8" y1="-30" x2="19.96935210376978" y2="-2.880188450217247" stroke="#06b6d4" stroke-width="2.5" stroke-linecap="round"/>
  </g>
  <circle cx="300.41190068237484" cy="22.452243398874998" r="1.5" fill="#fff" opacity="0.6"/>
  <circle cx="149.89827801007777" cy="30.557317489292473" r="1" fill="#fff" opacity="0.4"/>
</svg>