<svg xmlns="http://www.w3.org/2000/svg" viewBox="0 0 500 340" width="500" height="340">
  <defs>
    <radialGradient id="glow2" cx="50%" cy="40%" r="60%">
      <stop offset="0%" style="stop-color:#06b6d4;stop-opacity:0.15"/>
      <stop offset="100%" style="stop-color:#0a0a1a;stop-opacity:0"/>
    </radialGradient>
  </defs>
  <rect width="500" height="340" fill="#0f0f1f"/>
  <rect width="500" height="340" fill="url(#glow2)"/>
  <circle cx="135.02719523385167" cy="87.73243623785675" r="10.241264417767525" fill="#8b5cf6" opacity="0.1254935805639252"/><circle cx="250.72634185664356" cy="40.737822987139225" r="5.919414489530027" fill="#8b5cf6" opacity="0.12465898813214153"/><circle cx="141.98162869550288" cy="43.822728442028165" r="9.718978415243328" fill="#8b5cf6" opacity="0.13090646401513367"/><circle cx="167.88851199671626" cy="138.12415186315775" r="13.809710001572967" fill="#06b6d4" opacity="0.10197759775444866"/><circle cx="65.56966779753566" cy="22.25499059073627" r="8.055819113273174" fill="#8b5cf6" opacity="0.17713944750837984"/><circle cx="54.94500759989023" cy="92.11578164249659" r="6.79789381660521" fill="#06b6d4" opacity="0.1339776906138286"/><circle cx="103.74906820245087" cy="32.11730742827058" r="5.228984536137432" fill="#8b5cf6" opacity="0.166601754068397"/><circle cx="344.6913755685091" cy="32.64422191306949" r="11.603296427987516" fill="#8b5cf6" opacity="0.12900765449274332"/>
  <rect x="104.80615713633597" y="250" width="287.33892221935093" height="8" rx="3" fill="#2a2a40"/>
  <rect x="119.80615713633597" y="258" width="6" height="50" fill="#1a1a30"/>
  <rect x="371.1450793556869" y="258" width="6" height="50" fill="#1a1a30"/>
  <rect x="142.25682853045873" y="230.3419450307265" width="8" height="17.658054969273508" rx="2" fill="#06b6d4" opacity="0.6"/><path d="M204.18764079455286,226.8949041920714 L200.18764079455286,248 L208.18764079455286,248 Z" fill="#06b6d4" opacity="0.7"/>
         <line x1="204.18764079455286" y1="248" x2="204.18764079455286" y2="255" stroke="#06b6d4" stroke-width="1.5"/>
         <ellipse cx="204.18764079455286" cy="256" rx="5" ry="2" fill="#06b6d4" opacity="0.5"/><path d="M263.84471009951085,233.0645107952878 L259.84471009951085,248 L267.84471009951085,248 Z" fill="#06b6d4" opacity="0.7"/>
         <line x1="263.84471009951085" y1="248" x2="263.84471009951085" y2="255" stroke="#06b6d4" stroke-width="1.5"/>
         <ellipse cx="263.84471009951085" cy="256" rx="5" ry="2" fill="#06b6d4" opacity="0.5"/><path d="M317.67951269983314,226.6964387577027 L313.67951269983314,248 L321.67951269983314,248 Z" fill="#06b6d4" opacity="0.7"/>
         <line x1="317.67951269983314" y1="248" x2="317.67951269983314" y2="255" stroke="#06b6d4" stroke-width="1.5"/>
         <ellipse cx="317.67951269983314" cy="256" rx="5" ry="2" fill="#06b6d4" opacity="0.5"/><path d="M378.83129118126817,230.88181983307004 L374.83129118126817,248 L382.83129118126817,248 Z" fill="#06b6d4" opacity="0.7"/>
         <line x1="378.83129118126817" y1="248" x2="378.83129118126817" y2="255" stroke="#06b6d4" stroke-width="1.5"/>
         <ellipse cx="378.83129118126817" cy="256" rx="5" ry="2" fill="#06b6d4" opacity="0.5"/>
  <g transform="translate(173.19690176751465,185) scale(0.7522857025731355)">
    <ellipse cx="0" cy="-52" rx="9" ry="11" fill="#06b6d4"/>
    <path d="M3,-63 Q14,-50 8,-14.138907755725086" stroke="#06b6d4" stroke-width="3" fill="none" stroke-linecap="round"/>
    <path d="M-2,-63 Q-8,-48 -4,-17.138907755725086" stroke="#06b6d4" stroke-width="2.5" fill="none" stroke-linecap="round"/>
    <path d="M-8,-41 Q-10,-20 -6,0 Q-2,15 0,25 Q2,15 6,0 Q10,-20 8,-41 Z" fill="#06b6d4"/>
    <path d="M-6,0 Q-12,10 -8,25 L0,25 Z" fill="#8b5cf6" opacity="0.3"/>
    <path d="M6,0 Q12,10 8,25 L0,25 Z" fill="#8b5cf6" opacity="0.3"/>
    <line x1="-2" y1="25" x2="-8" y2="60" stroke="#06b6d4" stroke-width="3" stroke-linecap="round"/>
    <line x1="2" y1="25" x2="8" y2="60" stroke="#06b6d4" stroke-width="3" stroke-linecap="round"/>
    <ellipse cx="-9" cy="62" rx="5" ry="2" fill="#8b5cf6" opacity="0.6"/>
    <ellipse cx="9" cy="62" rx="5" ry="2" fill="#8b5cf6" opacity="0.6"/>
    <line x1="-8" y1="-30" x2="-22.661048711277544" y2="0.8705026796087623" stroke="#06b6d4" stroke-width="2.5" stroke-linecap="round"/>
    <line x1="8" y1="-30" x2="18.683153478894383" y2="-13.639178737066686" stroke="#06b6d4" stroke-width="2.5" stroke-linecap="round"/>
  </g><g transform="translate(251.0664355685003,182) scale(0.8517775000538678)">
    <ellipse cx="0" cy="-52" rx="9" ry="11" fill="#8b5cf6"/>
    <path d="M-3,-63 Q-14,-50 -8,-17.965094753773883" stroke="#8b5cf6" stroke-width="3" fill="none" stroke-linecap="round"/>
    <path d="M2,-63 Q8,-48 4,-20.965094753773883" stroke="#8b5cf6" stroke-width="2.5" fill="none" stroke-linecap="round"/>
    <path d="M-8,-41 Q-10,-20 -6,0 Q-2,15 0,25 Q2,15 6,0 Q10,-20 8,-41 Z" fill="#8b5cf6"/>
    <path d="M-6,0 Q-12,10 -8,25 L0,25 Z" fill="#06b6d4" opacity="0.3"/>
    <path d="M6,0 Q12,10 8,25 L0,25 Z" fill="#06b6d4" opacity="0.3"/>
    <line x1="-2" y1="25" x2="-8" y2="60" stroke="#8b5cf6" stroke-width="3" stroke-linecap="round"/>
    <line x1="2" y1="25" x2="8" y2="60" stroke="#8b5cf6" stroke-width="3" stroke-linecap="round"/>
    <ellipse cx="-9" cy="62" rx="5" ry="2" fill="#06b6d4" opacity="0.6"/>
    <ellipse cx="9" cy="62" rx="5" ry="2" fill="#06b6d4" opacity="0.6"/>
    <line x1="-8" y1="-30" x2="-26.535878511611372" y2="-0.5634498689323664" stroke="#8b5cf6" stroke-width="2.5" stroke-linecap="round"/>
    <line x1="8" y1="-30" x2="20.2633271291852" y2="2.77771626599133" stroke="#8b5cf6" stroke-width="2.5" stroke-linecap="round"/>
  </g><g transform="translate(362.93966315104626,188) scale(0.8320897840429098)">
    <ellipse cx="0" cy="-52" rx="9" ry="11" fill="#06b6d4"/>
    <path d="M-3,-63 Q-14,-50 -8,-19.231979806674644" stroke="#06b6d4" stroke-width="3" fill="none" stroke-linecap="round"/>
    <path d="M2,-63 Q8,-48 4,-22.231979806674644" stroke="#06b6d4" stroke-width="2.5" fill="none" stroke-linecap="round"/>
    <path d="M-8,-41 Q-10,-20 -6,0 Q-2,15 0,25 Q2,15 6,0 Q10,-20 8,-41 Z" fill="#06b6d4"/>
    <path d="M-6,0 Q-12,10 -8,25 L0,25 Z" fill="#8b5cf6" opacity="0.3"/>
    <path d="M6,0 Q12,10 8,25 L0,25 Z" fill="#8b5cf6" opacity="0.3"/>
    <line x1="-2" y1="25" x2="-8" y2="60" stroke="#06b6d4" stroke-width="3" stroke-linecap="round"/>
    <line x1="2" y1="25" x2="8" y2="60" stroke="#06b6d4" stroke-width="3" stroke-linecap="round"/>
    <ellipse cx="-9" cy="62" rx="5" ry="2" fill="#8b5cf6" opacity="0.6"/>
    <ellipse cx="9" cy="62" rx="5" ry="2" fill="#8b5cf6" opacity="0.6"/>
    <line x1="-8" y1="-30" x2="-27.790892840828747" y2="-0.24585176375694573" stroke="#06b6d4" stroke-width="2.5" stroke-linecap="round"/>
    <line x1="8" y1="-30" x2="26.730880098883063" y2="-12.368265083059669" stroke="#06b6d4" stroke-width="2.5" stroke-linecap="round"/>
  </g>
  <rect x="0" y="308" width="500" height="32" fill="#0d0d1a" opacity="0.5"/>
</svg>