<svg xmlns="http://www.w3.org/2000/svg" viewBox="0 0 1200 630" width="1200" height="630">
  <defs><linearGradient id="og_83795" x1="0%" y1="0%" x2="100%" y2="100%">
    <stop offset="0%" style="stop-color:#080c16"/><stop offset="100%" style="stop-color:#081c26"/>
  </linearGradient></defs>
  <rect width="1200" height="630" fill="url(#og_83795)"/>
  <circle cx="396.64384676143527" cy="306.01936302613467" r="41.126115960069" fill="#7c3aed" opacity="0.032340610364917664"/>
  <circle cx="831.0985565185547" cy="519.5718272798695" r="31.91644126083702" fill="#2dd4bf" opacity="0.09078276595100761"/>
  <circle cx="131.31026783958077" cy="184.51676443917677" r="48.13449730630964" fill="#7c3aed" opacity="0.07492390760220588"/>
  <circle cx="206.80704955011606" cy="429.7424105135724" r="71.92692100536078" fill="#2dd4bf" opacity="0.031360001256689425"/>
  <circle cx="158.15487569198012" cy="92.59945691563189" r="62.731368178501725" fill="#2dd4bf" opacity="0.03246721328003332"/>
  <circle cx="1078.691687900573" cy="603.0600618221797" r="31.862605791538954" fill="#7c3aed" opacity="0.0484518725448288"/>
  <circle cx="412.5962099991739" cy="6.471055329311639" r="41.199935898184776" fill="#ccfbf1" opacity="0.08782951501198114"/>
  <circle cx="1.6127318143844604" cy="227.5220716651529" r="66.64109570905566" fill="#2dd4bf" opacity="0.08653064653277398"/>
  <circle cx="425.3945868462324" cy="583.729125908576" r="52.51198965590447" fill="#2dd4bf" opacity="0.04457494036993012"/>
  <circle cx="87.13687285780907" cy="460.2060811081901" r="51.62972065620124" fill="#2dd4bf" opacity="0.06252773975487799"/>
  <circle cx="542.3702529631555" cy="457.01443940168247" r="39.61259020026773" fill="#7c3aed" opacity="0.0625438421429135"/>
  <circle cx="1039.9597031995654" cy="141.02312091272324" r="27.610501796007156" fill="#2dd4bf" opacity="0.04738851643400267"/>
  <circle cx="1019.9847428128123" cy="513.3741837646812" r="48.86094565037638" fill="#2dd4bf" opacity="0.0882947894046083"/>
  <circle cx="220.65169382840395" cy="182.80447462107986" r="65.9813669230789" fill="#7c3aed" opacity="0.04099816740024835"/>
  <circle cx="1009.5371073111892" cy="16.51697174180299" r="28.69032666552812" fill="#ccfbf1" opacity="0.03852026059757918"/>
  <circle cx="993.5452725738287" cy="539.078972088173" r="27.863244437612593" fill="#ccfbf1" opacity="0.09034911988535896"/>
  <circle cx="7.528258860111237" cy="510.42316942010075" r="34.79752447921783" fill="#2dd4bf" opacity="0.04296996241202578"/><g transform="translate(240,472.5) scale(2.1527566680684687)">
    <ellipse cx="0" cy="-52" rx="9" ry="11" fill="#2dd4bf"/>
    <path d="M-3,-63 Q-18,-48 -14,-20 Q-16,0 -12,20" stroke="#2dd4bf" stroke-width="3.5" fill="none" stroke-linecap="round"/>
     <path d="M2,-63 Q6,-55 4,-42" stroke="#2dd4bf" stroke-width="2" fill="none" stroke-linecap="round"/>
    <path d="M-7,-41 Q-9,-25 -7,-15 L7,-15 Q9,-25 7,-41 Z" fill="#7c3aed"/>
     <path d="M-8,-12 Q-10,5 -14,28 L14,28 Q10,5 8,-12 Z" fill="#2dd4bf" opacity="0.8"/>
    <line x1="-2" y1="25" x2="-14" y2="60" stroke="#2dd4bf" stroke-width="3" stroke-linecap="round"/>
    <line x1="2" y1="25" x2="14" y2="60" stroke="#2dd4bf" stroke-width="3" stroke-linecap="round"/>
    <ellipse cx="-16" cy="62" rx="6" ry="2.5" fill="#7c3aed" opacity="0.7"/>
    <ellipse cx="16" cy="62" rx="6" ry="2.5" fill="#7c3aed" opacity="0.7"/>
    <line x1="-8" y1="-30" x2="-24" y2="-15" stroke="#2dd4bf" stroke-width="2.5" stroke-linecap="round"/>
    <line x1="8" y1="-30" x2="20" y2="-8" stroke="#2dd4bf" stroke-width="2.5" stroke-linecap="round"/>
    
  </g><g transform="translate(960,472.5) scale(1.909477679990232)">
    <ellipse cx="0" cy="-52" rx="9" ry="11" fill="#7c3aed"/>
    <path d="M-3,-63 Q-12,-55 -8,-45" stroke="#7c3aed" stroke-width="3" fill="none" stroke-linecap="round"/>
     <path d="M2,-63 Q8,-60 14,-55 Q20,-40 16,-15 Q14,0 12,10" stroke="#7c3aed" stroke-width="2.5" fill="none" stroke-linecap="round"/>
    <path d="M-8,-41 Q-10,-20 -6,0 Q-8,12 -14,30 L14,30 Q8,12 6,0 Q10,-20 8,-41 Z" fill="#2dd4bf"/>
     <path d="M-6,0 L-14,30 L0,30 Z" fill="#7c3aed" opacity="0.2"/>
    <line x1="-2" y1="25" x2="-10" y2="60" stroke="#7c3aed" stroke-width="3" stroke-linecap="round"/>
    <line x1="2" y1="25" x2="6" y2="60" stroke="#7c3aed" stroke-width="3" stroke-linecap="round"/>
    <ellipse cx="-10" cy="62" rx="6" ry="2.5" fill="#2dd4bf" opacity="0.7"/>
    <ellipse cx="6" cy="62" rx="6" ry="2.5" fill="#2dd4bf" opacity="0.7"/>
    <line x1="-8" y1="-30" x2="-24" y2="-45" stroke="#7c3aed" stroke-width="2.5" stroke-linecap="round"/>
    <line x1="8" y1="-30" x2="24" y2="-48" stroke="#7c3aed" stroke-width="2.5" stroke-linecap="round"/>
    <path d="M-10,-56 Q-12,-66 0,-68 Q12,-66 10,-56" stroke="#2dd4bf" stroke-width="2" fill="none"/>
  </g>
  <rect x="180" y="189" width="840" height="220.5" rx="12" fill="#080c16" opacity="0.75" stroke="#2dd4bf" stroke-width="2"/>
  <text x="600" y="283.5" text-anchor="middle" font-family="sans-serif" font-size="52" font-weight="800" fill="#2dd4bf">이태원 글로브 라운지</text>
  <text x="600" y="346.5" text-anchor="middle" font-family="sans-serif" font-size="24" fill="#ccfbf1" opacity="0.8">이태원 · 라운지</text>
</svg>