<svg xmlns="http://www.w3.org/2000/svg" viewBox="0 0 500 340" width="500" height="340">
  <defs>
    <linearGradient id="bg_54390" x1="0%" y1="0%" x2="0%" y2="100%">
      <stop offset="0%" style="stop-color:#0a0a14"/>
      <stop offset="100%" style="stop-color:#1a1020"/>
    </linearGradient>
  </defs>
  <rect width="500" height="340" fill="url(#bg_54390)"/>
  <rect x="12.313570193946362" y="177.31171943247318" width="37.94952096417546" height="142.68828056752682" fill="#1a1020" opacity="0.3478243575431406" rx="2"/>
  <rect x="41.31357019394636" y="187.31171943247318" width="4" height="5" fill="#f59e0b" opacity="0.14094297997653485"/>
  <rect x="17.31357019394636" y="205.5084485025145" width="4" height="5" fill="#f59e0b" opacity="0.23323269183747472"/>
  <rect x="29.31357019394636" y="205.5084485025145" width="4" height="5" fill="#f59e0b" opacity="0.2726237223949284"/>
  <rect x="29.31357019394636" y="229.91071799304336" width="4" height="5" fill="#f59e0b" opacity="0.1283345294184983"/>
  <rect x="41.31357019394636" y="229.91071799304336" width="4" height="5" fill="#f59e0b" opacity="0.18432054347358645"/>
  <rect x="17.31357019394636" y="245.35761694423854" width="4" height="5" fill="#f59e0b" opacity="0.1177439448889345"/>
  <rect x="17.31357019394636" y="263.89754275325686" width="4" height="5" fill="#f59e0b" opacity="0.14131254511885347"/>
  <rect x="29.31357019394636" y="263.89754275325686" width="4" height="5" fill="#f59e0b" opacity="0.21563444654457273"/>
  <rect x="41.31357019394636" y="263.89754275325686" width="4" height="5" fill="#f59e0b" opacity="0.19473593975417317"/>
  <rect x="17.31357019394636" y="285.0498856953345" width="4" height="5" fill="#f59e0b" opacity="0.1940703655127436"/>
  <rect x="29.31357019394636" y="285.0498856953345" width="4" height="5" fill="#f59e0b" opacity="0.1977701642550528"/>
  <rect x="41.31357019394636" y="285.0498856953345" width="4" height="5" fill="#f59e0b" opacity="0.13228925354778767"/>
  <rect x="17.31357019394636" y="306.13326236372814" width="4" height="5" fill="#f59e0b" opacity="0.1071878347080201"/>
  <rect x="74.13564353482798" y="188.29066902399063" width="75.55045084096491" height="131.70933097600937" fill="#1a1020" opacity="0.44249593878630544" rx="2"/>
  <rect x="79.13564353482798" y="198.29066902399063" width="4" height="5" fill="#f59e0b" opacity="0.19765726970508696"/>
  <rect x="91.13564353482798" y="198.29066902399063" width="4" height="5" fill="#f59e0b" opacity="0.1698933548759669"/>
  <rect x="115.13564353482798" y="198.29066902399063" width="4" height="5" fill="#f59e0b" opacity="0.2369161147158593"/>
  <rect x="127.13564353482798" y="198.29066902399063" width="4" height="5" fill="#f59e0b" opacity="0.25176256499253213"/>
  <rect x="139.13564353482798" y="198.29066902399063" width="4" height="5" fill="#f59e0b" opacity="0.1773055954836309"/>
  <rect x="127.13564353482798" y="221.60200093407184" width="4" height="5" fill="#f59e0b" opacity="0.12709650602191688"/>
  <rect x="91.13564353482798" y="242.14163047494367" width="4" height="5" fill="#f59e0b" opacity="0.1486446446273476"/>
  <rect x="103.13564353482798" y="242.14163047494367" width="4" height="5" fill="#f59e0b" opacity="0.2919285380281508"/>
  <rect x="115.13564353482798" y="242.14163047494367" width="4" height="5" fill="#f59e0b" opacity="0.17155828820541502"/>
  <rect x="127.13564353482798" y="242.14163047494367" width="4" height="5" fill="#f59e0b" opacity="0.23571572289802134"/>
  <rect x="91.13564353482798" y="257.20168597763404" width="4" height="5" fill="#f59e0b" opacity="0.2950192081276327"/>
  <rect x="103.13564353482798" y="257.20168597763404" width="4" height="5" fill="#f59e0b" opacity="0.2434017974883318"/>
  <rect x="79.13564353482798" y="278.9522940851748" width="4" height="5" fill="#f59e0b" opacity="0.18202849444933236"/>
  <rect x="103.13564353482798" y="278.9522940851748" width="4" height="5" fill="#f59e0b" opacity="0.21801083199679852"/>
  <rect x="127.13564353482798" y="278.9522940851748" width="4" height="5" fill="#f59e0b" opacity="0.10231140637770296"/>
  <rect x="91.13564353482798" y="297.98226963030174" width="4" height="5" fill="#f59e0b" opacity="0.15051942984573544"/>
  <rect x="103.13564353482798" y="297.98226963030174" width="4" height="5" fill="#f59e0b" opacity="0.17518799947574737"/>
  <rect x="115.13564353482798" y="297.98226963030174" width="4" height="5" fill="#f59e0b" opacity="0.252157977828756"/>
  <rect x="132.49474208103493" y="80.83257619291544" width="80.0914227264002" height="239.16742380708456" fill="#1a1020" opacity="0.49047845571767534" rx="2"/>
  <rect x="173.49474208103493" y="90.83257619291544" width="4" height="5" fill="#f59e0b" opacity="0.13898306926712395"/>
  <rect x="185.49474208103493" y="90.83257619291544" width="4" height="5" fill="#f59e0b" opacity="0.12110817921347916"/>
  <rect x="197.49474208103493" y="90.83257619291544" width="4" height="5" fill="#f59e0b" opacity="0.12493414958007634"/>
  <rect x="149.49474208103493" y="115.07515002973378" width="4" height="5" fill="#f59e0b" opacity="0.2116174118127674"/>
  <rect x="161.49474208103493" y="115.07515002973378" width="4" height="5" fill="#f59e0b" opacity="0.11625035284087062"/>
  <rect x="173.49474208103493" y="115.07515002973378" width="4" height="5" fill="#f59e0b" opacity="0.25417597414925697"/>
  <rect x="197.49474208103493" y="115.07515002973378" width="4" height="5" fill="#f59e0b" opacity="0.25026655988767743"/>
  <rect x="137.49474208103493" y="132.48384641250595" width="4" height="5" fill="#f59e0b" opacity="0.15549238091334702"/>
  <rect x="149.49474208103493" y="132.48384641250595" width="4" height="5" fill="#f59e0b" opacity="0.20960445720702411"/>
  <rect x="185.49474208103493" y="132.48384641250595" width="4" height="5" fill="#f59e0b" opacity="0.20561566022224725"/>
  <rect x="197.49474208103493" y="132.48384641250595" width="4" height="5" fill="#f59e0b" opacity="0.17284022783860564"/>
  <rect x="149.49474208103493" y="154.87310461699963" width="4" height="5" fill="#f59e0b" opacity="0.12944232542067768"/>
  <rect x="137.49474208103493" y="175.3534755227156" width="4" height="5" fill="#f59e0b" opacity="0.2018701289780438"/>
  <rect x="149.49474208103493" y="175.3534755227156" width="4" height="5" fill="#f59e0b" opacity="0.1371807506773621"/>
  <rect x="161.49474208103493" y="175.3534755227156" width="4" height="5" fill="#f59e0b" opacity="0.25460721203126013"/>
  <rect x="185.49474208103493" y="175.3534755227156" width="4" height="5" fill="#f59e0b" opacity="0.22601405926980078"/>
  <rect x="197.49474208103493" y="175.3534755227156" width="4" height="5" fill="#f59e0b" opacity="0.2147937356028706"/>
  <rect x="149.49474208103493" y="199.34540629386902" width="4" height="5" fill="#f59e0b" opacity="0.12543660886585714"/>
  <rect x="161.49474208103493" y="199.34540629386902" width="4" height="5" fill="#f59e0b" opacity="0.14428843134082855"/>
  <rect x="185.49474208103493" y="199.34540629386902" width="4" height="5" fill="#f59e0b" opacity="0.18026692476123574"/>
  <rect x="149.49474208103493" y="218.5066730249673" width="4" height="5" fill="#f59e0b" opacity="0.2084893999155611"/>
  <rect x="161.49474208103493" y="218.5066730249673" width="4" height="5" fill="#f59e0b" opacity="0.2008391910698265"/>
  <rect x="173.49474208103493" y="218.5066730249673" width="4" height="5" fill="#f59e0b" opacity="0.22154241977259517"/>
  <rect x="185.49474208103493" y="218.5066730249673" width="4" height="5" fill="#f59e0b" opacity="0.1556170977652073"/>
  <rect x="197.49474208103493" y="218.5066730249673" width="4" height="5" fill="#f59e0b" opacity="0.12114520119503142"/>
  <rect x="137.49474208103493" y="239.0896617807448" width="4" height="5" fill="#f59e0b" opacity="0.22765704481862487"/>
  <rect x="161.49474208103493" y="239.0896617807448" width="4" height="5" fill="#f59e0b" opacity="0.21714935433119537"/>
  <rect x="173.49474208103493" y="239.0896617807448" width="4" height="5" fill="#f59e0b" opacity="0.10838297777809203"/>
  <rect x="197.49474208103493" y="239.0896617807448" width="4" height="5" fill="#f59e0b" opacity="0.20522248260676862"/>
  <rect x="185.49474208103493" y="263.6980112409219" width="4" height="5" fill="#f59e0b" opacity="0.20312299933284522"/>
  <rect x="137.49474208103493" y="279.76846114033833" width="4" height="5" fill="#f59e0b" opacity="0.15818728166632356"/>
  <rect x="161.49474208103493" y="279.76846114033833" width="4" height="5" fill="#f59e0b" opacity="0.17617770773358643"/>
  <rect x="173.49474208103493" y="279.76846114033833" width="4" height="5" fill="#f59e0b" opacity="0.11432535676285625"/>
  <rect x="185.49474208103493" y="279.76846114033833" width="4" height="5" fill="#f59e0b" opacity="0.23215505052357913"/>
  <rect x="197.49474208103493" y="279.76846114033833" width="4" height="5" fill="#f59e0b" opacity="0.24323341753333808"/>
  <rect x="149.49474208103493" y="295.1811454957351" width="4" height="5" fill="#f59e0b" opacity="0.13104526032693686"/>
  <rect x="161.49474208103493" y="295.1811454957351" width="4" height="5" fill="#f59e0b" opacity="0.2016899507492781"/>
  <rect x="185.49474208103493" y="295.1811454957351" width="4" height="5" fill="#f59e0b" opacity="0.1357603592798114"/>
  <rect x="197.49474208103493" y="295.1811454957351" width="4" height="5" fill="#f59e0b" opacity="0.25266969124786554"/>
  <rect x="207.8350109118037" y="193.91130831092596" width="85.14345859643072" height="126.08869168907404" fill="#1a1020" opacity="0.3768419469706714" rx="2"/>
  <rect x="236.8350109118037" y="203.91130831092596" width="4" height="5" fill="#f59e0b" opacity="0.10578902070410551"/>
  <rect x="260.8350109118037" y="203.91130831092596" width="4" height="5" fill="#f59e0b" opacity="0.23942063166759908"/>
  <rect x="272.8350109118037" y="203.91130831092596" width="4" height="5" fill="#f59e0b" opacity="0.2688230916392058"/>
  <rect x="284.8350109118037" y="203.91130831092596" width="4" height="5" fill="#f59e0b" opacity="0.14436351954936982"/>
  <rect x="212.8350109118037" y="226.48124845698476" width="4" height="5" fill="#f59e0b" opacity="0.2970698687713593"/>
  <rect x="236.8350109118037" y="226.48124845698476" width="4" height="5" fill="#f59e0b" opacity="0.18011906612664463"/>
  <rect x="260.8350109118037" y="226.48124845698476" width="4" height="5" fill="#f59e0b" opacity="0.2754443996585906"/>
  <rect x="272.8350109118037" y="226.48124845698476" width="4" height="5" fill="#f59e0b" opacity="0.12672836580313743"/>
  <rect x="212.8350109118037" y="243.7026826897636" width="4" height="5" fill="#f59e0b" opacity="0.15119186006486418"/>
  <rect x="236.8350109118037" y="243.7026826897636" width="4" height="5" fill="#f59e0b" opacity="0.2660945771727711"/>
  <rect x="248.8350109118037" y="243.7026826897636" width="4" height="5" fill="#f59e0b" opacity="0.13846868975088"/>
  <rect x="260.8350109118037" y="243.7026826897636" width="4" height="5" fill="#f59e0b" opacity="0.23269815812818706"/>
  <rect x="212.8350109118037" y="259.9708895292133" width="4" height="5" fill="#f59e0b" opacity="0.2840909401886165"/>
  <rect x="224.8350109118037" y="259.9708895292133" width="4" height="5" fill="#f59e0b" opacity="0.11630314229987562"/>
  <rect x="236.8350109118037" y="259.9708895292133" width="4" height="5" fill="#f59e0b" opacity="0.10094494428485633"/>
  <rect x="248.8350109118037" y="259.9708895292133" width="4" height="5" fill="#f59e0b" opacity="0.26308204396627843"/>
  <rect x="260.8350109118037" y="259.9708895292133" width="4" height="5" fill="#f59e0b" opacity="0.22612600694410503"/>
  <rect x="272.8350109118037" y="259.9708895292133" width="4" height="5" fill="#f59e0b" opacity="0.2488423258531839"/>
  <rect x="284.8350109118037" y="259.9708895292133" width="4" height="5" fill="#f59e0b" opacity="0.22764366283081472"/>
  <rect x="224.8350109118037" y="283.6584745440632" width="4" height="5" fill="#f59e0b" opacity="0.28736963523551823"/>
  <rect x="236.8350109118037" y="283.6584745440632" width="4" height="5" fill="#f59e0b" opacity="0.2862451089546084"/>
  <rect x="248.8350109118037" y="283.6584745440632" width="4" height="5" fill="#f59e0b" opacity="0.18966646823100747"/>
  <rect x="284.8350109118037" y="283.6584745440632" width="4" height="5" fill="#f59e0b" opacity="0.29115399522706864"/>
  <rect x="236.8350109118037" y="300.3267715102993" width="4" height="5" fill="#f59e0b" opacity="0.2298173378687352"/>
  <rect x="248.8350109118037" y="300.3267715102993" width="4" height="5" fill="#f59e0b" opacity="0.1689554966054857"/>
  <rect x="284.8350109118037" y="300.3267715102993" width="4" height="5" fill="#f59e0b" opacity="0.2520806247368455"/>
  <rect x="260.57723553152755" y="104.8249964416027" width="54.649365772493184" height="215.1750035583973" fill="#1a1020" opacity="0.5863735734019428" rx="2"/>
  <rect x="265.57723553152755" y="114.8249964416027" width="4" height="5" fill="#f59e0b" opacity="0.1952114939223975"/>
  <rect x="277.57723553152755" y="114.8249964416027" width="4" height="5" fill="#f59e0b" opacity="0.17159114619717003"/>
  <rect x="289.57723553152755" y="114.8249964416027" width="4" height="5" fill="#f59e0b" opacity="0.22239819294773044"/>
  <rect x="301.57723553152755" y="114.8249964416027" width="4" height="5" fill="#f59e0b" opacity="0.12526965085417033"/>
  <rect x="265.57723553152755" y="138.34916099905968" width="4" height="5" fill="#f59e0b" opacity="0.1239406323991716"/>
  <rect x="277.57723553152755" y="138.34916099905968" width="4" height="5" fill="#f59e0b" opacity="0.27995596872642636"/>
  <rect x="289.57723553152755" y="138.34916099905968" width="4" height="5" fill="#f59e0b" opacity="0.26641318020410837"/>
  <rect x="301.57723553152755" y="138.34916099905968" width="4" height="5" fill="#f59e0b" opacity="0.22492239833809435"/>
  <rect x="301.57723553152755" y="153.67081727599725" width="4" height="5" fill="#f59e0b" opacity="0.21431997758336366"/>
  <rect x="265.57723553152755" y="174.59006710676476" width="4" height="5" fill="#f59e0b" opacity="0.15636673509143295"/>
  <rect x="301.57723553152755" y="174.59006710676476" width="4" height="5" fill="#f59e0b" opacity="0.1275634285528213"/>
  <rect x="277.57723553152755" y="198.6270657577552" width="4" height="5" fill="#f59e0b" opacity="0.2593343476299197"/>
  <rect x="265.57723553152755" y="214.1025795089081" width="4" height="5" fill="#f59e0b" opacity="0.22604257878847422"/>
  <rect x="301.57723553152755" y="214.1025795089081" width="4" height="5" fill="#f59e0b" opacity="0.29538362273015084"/>
  <rect x="265.57723553152755" y="232.254684290383" width="4" height="5" fill="#f59e0b" opacity="0.15949490512721243"/>
  <rect x="301.57723553152755" y="232.254684290383" width="4" height="5" fill="#f59e0b" opacity="0.2736768721602857"/>
  <rect x="265.57723553152755" y="253.5770154884085" width="4" height="5" fill="#f59e0b" opacity="0.19458282543346286"/>
  <rect x="277.57723553152755" y="253.5770154884085" width="4" height="5" fill="#f59e0b" opacity="0.15493887872435153"/>
  <rect x="265.57723553152755" y="278.198497351259" width="4" height="5" fill="#f59e0b" opacity="0.13663812712766232"/>
  <rect x="265.57723553152755" y="300.0578991440125" width="4" height="5" fill="#f59e0b" opacity="0.2804123084060848"/>
  <rect x="301.57723553152755" y="300.0578991440125" width="4" height="5" fill="#f59e0b" opacity="0.1809795128181577"/>
  <rect x="331.0576181183569" y="214.61611911654472" width="57.99170199315995" height="105.38388088345528" fill="#1a1020" opacity="0.42867112092208115" rx="2"/>
  <rect x="336.0576181183569" y="224.61611911654472" width="4" height="5" fill="#f59e0b" opacity="0.16197820683009923"/>
  <rect x="348.0576181183569" y="224.61611911654472" width="4" height="5" fill="#f59e0b" opacity="0.2253046091180295"/>
  <rect x="360.0576181183569" y="224.61611911654472" width="4" height="5" fill="#f59e0b" opacity="0.26119448370300236"/>
  <rect x="372.0576181183569" y="224.61611911654472" width="4" height="5" fill="#f59e0b" opacity="0.16030759997665883"/>
  <rect x="336.0576181183569" y="247.51240423414856" width="4" height="5" fill="#f59e0b" opacity="0.12854347517713904"/>
  <rect x="360.0576181183569" y="247.51240423414856" width="4" height="5" fill="#f59e0b" opacity="0.19691024273633959"/>
  <rect x="372.0576181183569" y="247.51240423414856" width="4" height="5" fill="#f59e0b" opacity="0.14982951362617314"/>
  <rect x="336.0576181183569" y="271.12131746253" width="4" height="5" fill="#f59e0b" opacity="0.2039169080555439"/>
  <rect x="348.0576181183569" y="271.12131746253" width="4" height="5" fill="#f59e0b" opacity="0.13619609195739033"/>
  <rect x="360.0576181183569" y="271.12131746253" width="4" height="5" fill="#f59e0b" opacity="0.176266654394567"/>
  <rect x="336.0576181183569" y="289.4449745933525" width="4" height="5" fill="#f59e0b" opacity="0.12228762642480434"/>
  <rect x="348.0576181183569" y="289.4449745933525" width="4" height="5" fill="#f59e0b" opacity="0.12398039004765452"/>
  <line x1="125" y1="0" x2="117.85189422778785" y2="204" stroke="#f59e0b" stroke-width="20" opacity="0.04"/>
  <line x1="250" y1="0" x2="235.0669229310006" y2="204" stroke="#f59e0b" stroke-width="20" opacity="0.04"/>
  <line x1="375" y1="0" x2="392.6697645429522" y2="204" stroke="#f59e0b" stroke-width="20" opacity="0.04"/>
  <circle cx="302.78975784312934" cy="237.5667717568576" r="1.8567502805963159" fill="#fff" opacity="0.3095559075474739"/>
  <circle cx="494.9024961097166" cy="137.39259580010548" r="2.4889850704930723" fill="#fff" opacity="0.472077797097154"/>
  <circle cx="110.4420693591237" cy="161.38543863315135" r="0.9077639668248594" fill="#fff" opacity="0.3913801971822977"/>
  <circle cx="136.97733031585813" cy="172.52950959000736" r="1.911762862931937" fill="#fff" opacity="0.6213400391163304"/>
  <circle cx="205.0438115838915" cy="24.702062244527042" r="1.6355711841024458" fill="#fff" opacity="0.6736511555965989"/>
  <circle cx="179.8621314810589" cy="148.7902724002488" r="2.3140091812238097" fill="#fff" opacity="0.4912119048414752"/>
  <circle cx="131.43795856740326" cy="96.77691980218515" r="1.1793917207978666" fill="#fff" opacity="0.2053216606611386"/>
  <circle cx="433.2103480119258" cy="9.415176751557738" r="0.5644918335601687" fill="#fff" opacity="0.24535601369570942"/>
  <rect x="0" y="315" width="500" height="25" fill="#0a0a14"/>
  <ellipse cx="8.37241264525801" cy="320" rx="48.231671650428325" ry="4" fill="#ef4444" opacity="0.10070609442889691"/>
  <ellipse cx="487.5719550764188" cy="320" rx="41.97255278006196" ry="4" fill="#f59e0b" opacity="0.11128576088696719"/>
  <ellipse cx="317.9069693433121" cy="320" rx="65.60726140625775" ry="4" fill="#ef4444" opacity="0.17246660424396396"/>
  <ellipse cx="198.74013599473983" cy="320" rx="45.544131733477116" ry="4" fill="#f59e0b" opacity="0.21813637181185186"/>
  <ellipse cx="474.40186771564186" cy="320" rx="25.701649410184473" ry="4" fill="#f59e0b" opacity="0.20965265902690589"/>
  <g transform="translate(173.20206198763722,287.4233884201385) scale(1.0200022567063571)">
    <ellipse cx="0" cy="-52" rx="9" ry="11" fill="#f59e0b"/>
    <path d="M-3,-63 Q-10,-58 -6,-50" stroke="#f59e0b" stroke-width="3" fill="none" stroke-linecap="round"/>
     <circle cx="2" cy="-68" r="6" fill="#f59e0b" opacity="0.8"/>
     <path d="M2,-63 Q8,-60 5,-52" stroke="#f59e0b" stroke-width="2.5" fill="none" stroke-linecap="round"/>
    <path d="M-8,-41 Q-10,-20 -6,0 Q-4,10 -2,20 L2,20 Q4,10 6,0 Q10,-20 8,-41 Z" fill="#ef4444"/>
     <rect x="-9" y="-42" width="18" height="4" rx="1" fill="#f59e0b" opacity="0.5"/>
    <line x1="-2" y1="25" x2="-8" y2="60" stroke="#f59e0b" stroke-width="3" stroke-linecap="round"/>
    <line x1="2" y1="25" x2="8" y2="60" stroke="#f59e0b" stroke-width="3" stroke-linecap="round"/>
    <ellipse cx="-8" cy="62" rx="6" ry="2.5" fill="#ef4444" opacity="0.7"/>
    <ellipse cx="8" cy="62" rx="6" ry="2.5" fill="#ef4444" opacity="0.7"/>
    <line x1="-8" y1="-30" x2="-20" y2="-5" stroke="#f59e0b" stroke-width="2.5" stroke-linecap="round"/>
    <line x1="8" y1="-30" x2="28" y2="-25" stroke="#f59e0b" stroke-width="2.5" stroke-linecap="round"/>
    
  </g><g transform="translate(347.3729022204255,275.5943471658975) scale(0.8995358861982823)">
    <ellipse cx="0" cy="-52" rx="9" ry="11" fill="#ef4444"/>
    <path d="M-3,-63 Q-18,-48 -14,-20 Q-16,0 -12,20" stroke="#ef4444" stroke-width="3.5" fill="none" stroke-linecap="round"/>
     <path d="M2,-63 Q6,-55 4,-42" stroke="#ef4444" stroke-width="2" fill="none" stroke-linecap="round"/>
    <path d="M-8,-41 Q-10,-20 -6,0 Q-10,20 -16,55 L16,55 Q10,20 6,0 Q10,-20 8,-41 Z" fill="#f59e0b"/>
     <path d="M0,0 Q-6,25 -16,55 L0,50 Z" fill="#ef4444" opacity="0.15"/>
    <line x1="-2" y1="25" x2="-10" y2="60" stroke="#ef4444" stroke-width="3" stroke-linecap="round"/>
    <line x1="2" y1="25" x2="6" y2="60" stroke="#ef4444" stroke-width="3" stroke-linecap="round"/>
    <ellipse cx="-10" cy="62" rx="6" ry="2.5" fill="#f59e0b" opacity="0.7"/>
    <ellipse cx="6" cy="62" rx="6" ry="2.5" fill="#f59e0b" opacity="0.7"/>
    <line x1="-8" y1="-30" x2="-16" y2="-8" stroke="#ef4444" stroke-width="2.5" stroke-linecap="round"/>
    <line x1="8" y1="-30" x2="24" y2="-20" stroke="#ef4444" stroke-width="2.5" stroke-linecap="round"/>
    
  </g>
  <rect x="430" y="12" width="58" height="22" rx="4" fill="#f59e0b" opacity="0.8"/>
  <text x="459" y="28" text-anchor="middle" font-family="sans-serif" font-size="10" font-weight="700" fill="#fff">NIGHT</text>
  <rect x="75" y="19" width="350" height="30" rx="6" fill="#0a0a14" opacity="0.7" stroke="#f59e0b" stroke-width="1.5"/>
  <text x="250" y="39" text-anchor="middle" font-family="sans-serif" font-size="16" font-weight="700" fill="#f59e0b" opacity="0.9">노원 호박 나이트</text>
</svg>