<svg xmlns="http://www.w3.org/2000/svg" viewBox="0 0 500 340" width="500" height="340">
  <defs>
    <radialGradient id="glow2" cx="50%" cy="40%" r="60%">
      <stop offset="0%" style="stop-color:#f59e0b;stop-opacity:0.15"/>
      <stop offset="100%" style="stop-color:#0a0a1a;stop-opacity:0"/>
    </radialGradient>
  </defs>
  <rect width="500" height="340" fill="#0f0f1f"/>
  <rect width="500" height="340" fill="url(#glow2)"/>
  <circle cx="176.03735263459384" cy="115.39879126474261" r="10.573337367735803" fill="#ef4444" opacity="0.11122251736931503"/><circle cx="124.45552742108703" cy="99.8498413991183" r="6.903417055495083" fill="#f59e0b" opacity="0.13139609728939833"/><circle cx="158.39971097186208" cy="60.34355436451733" r="13.846937467809767" fill="#f59e0b" opacity="0.11102630551438779"/><circle cx="45.442795641720295" cy="103.67430804297328" r="13.871194139122963" fill="#ef4444" opacity="0.09427299526985736"/><circle cx="216.71370105817914" cy="67.37612353637815" r="12.50955274188891" fill="#f59e0b" opacity="0.12696654051076622"/><circle cx="403.21989950723946" cy="66.45168907940388" r="7.1077084178105" fill="#ef4444" opacity="0.08112973116338253"/><circle cx="259.09599758684635" cy="97.71009814925492" r="4.784864313900471" fill="#f59e0b" opacity="0.15609908110462128"/><circle cx="41.40772273764014" cy="82.20975376665592" r="4.945724020712078" fill="#ef4444" opacity="0.17259302304126323"/>
  <rect x="133.82470857352018" y="250" width="310.0474349036813" height="8" rx="3" fill="#2a2a40"/>
  <rect x="148.82470857352018" y="258" width="6" height="50" fill="#1a1a30"/>
  <rect x="422.87214347720146" y="258" width="6" height="50" fill="#1a1a30"/>
  <path d="M175.8392950403504,224.12452193535864 L171.8392950403504,248 L179.8392950403504,248 Z" fill="#f59e0b" opacity="0.7"/>
         <line x1="175.8392950403504" y1="248" x2="175.8392950403504" y2="255" stroke="#f59e0b" stroke-width="1.5"/>
         <ellipse cx="175.8392950403504" cy="256" rx="5" ry="2" fill="#f59e0b" opacity="0.5"/><path d="M243.40760397724807,225.54151600552723 L239.40760397724807,248 L247.40760397724807,248 Z" fill="#f59e0b" opacity="0.7"/>
         <line x1="243.40760397724807" y1="248" x2="243.40760397724807" y2="255" stroke="#f59e0b" stroke-width="1.5"/>
         <ellipse cx="243.40760397724807" cy="256" rx="5" ry="2" fill="#f59e0b" opacity="0.5"/><path d="M283.97058261325583,232.4241062356159 L279.97058261325583,248 L287.97058261325583,248 Z" fill="#f59e0b" opacity="0.7"/>
         <line x1="283.97058261325583" y1="248" x2="283.97058261325583" y2="255" stroke="#f59e0b" stroke-width="1.5"/>
         <ellipse cx="283.97058261325583" cy="256" rx="5" ry="2" fill="#f59e0b" opacity="0.5"/><path d="M341.9685661501717,231.54781685536727 L337.9685661501717,248 L345.9685661501717,248 Z" fill="#f59e0b" opacity="0.7"/>
         <line x1="341.9685661501717" y1="248" x2="341.9685661501717" y2="255" stroke="#f59e0b" stroke-width="1.5"/>
         <ellipse cx="341.9685661501717" cy="256" rx="5" ry="2" fill="#f59e0b" opacity="0.5"/><path d="M398.9885570725892,227.19822785677388 L394.9885570725892,248 L402.9885570725892,248 Z" fill="#f59e0b" opacity="0.7"/>
         <line x1="398.9885570725892" y1="248" x2="398.9885570725892" y2="255" stroke="#f59e0b" stroke-width="1.5"/>
         <ellipse cx="398.9885570725892" cy="256" rx="5" ry="2" fill="#f59e0b" opacity="0.5"/>
  <g transform="translate(209.42197706084698,185) scale(0.8144314413657412)">
    <ellipse cx="0" cy="-52" rx="9" ry="11" fill="#f59e0b"/>
    <path d="M-3,-63 Q-14,-50 -8,-18.110197703819722" stroke="#f59e0b" stroke-width="3" fill="none" stroke-linecap="round"/>
    <path d="M2,-63 Q8,-48 4,-21.110197703819722" stroke="#f59e0b" stroke-width="2.5" fill="none" stroke-linecap="round"/>
    <path d="M-8,-41 Q-10,-20 -6,0 Q-2,15 0,25 Q2,15 6,0 Q10,-20 8,-41 Z" fill="#f59e0b"/>
    <path d="M-6,0 Q-12,10 -8,25 L0,25 Z" fill="#ef4444" opacity="0.3"/>
    <path d="M6,0 Q12,10 8,25 L0,25 Z" fill="#ef4444" opacity="0.3"/>
    <line x1="-2" y1="25" x2="-8" y2="60" stroke="#f59e0b" stroke-width="3" stroke-linecap="round"/>
    <line x1="2" y1="25" x2="8" y2="60" stroke="#f59e0b" stroke-width="3" stroke-linecap="round"/>
    <ellipse cx="-9" cy="62" rx="5" ry="2" fill="#ef4444" opacity="0.6"/>
    <ellipse cx="9" cy="62" rx="5" ry="2" fill="#ef4444" opacity="0.6"/>
    <line x1="-8" y1="-30" x2="-26.059267785865813" y2="12.562719526467845" stroke="#f59e0b" stroke-width="2.5" stroke-linecap="round"/>
    <line x1="8" y1="-30" x2="21.76469928305596" y2="-3.971443218179047" stroke="#f59e0b" stroke-width="2.5" stroke-linecap="round"/>
  </g><g transform="translate(297.4118252238259,182) scale(0.884262514160946)">
    <ellipse cx="0" cy="-52" rx="9" ry="11" fill="#ef4444"/>
    <path d="M3,-63 Q14,-50 8,-12.872893627965823" stroke="#ef4444" stroke-width="3" fill="none" stroke-linecap="round"/>
    <path d="M-2,-63 Q-8,-48 -4,-15.872893627965823" stroke="#ef4444" stroke-width="2.5" fill="none" stroke-linecap="round"/>
    <path d="M-8,-41 Q-10,-20 -6,0 Q-2,15 0,25 Q2,15 6,0 Q10,-20 8,-41 Z" fill="#ef4444"/>
    <path d="M-6,0 Q-12,10 -8,25 L0,25 Z" fill="#f59e0b" opacity="0.3"/>
    <path d="M6,0 Q12,10 8,25 L0,25 Z" fill="#f59e0b" opacity="0.3"/>
    <line x1="-2" y1="25" x2="-8" y2="60" stroke="#ef4444" stroke-width="3" stroke-linecap="round"/>
    <line x1="2" y1="25" x2="8" y2="60" stroke="#ef4444" stroke-width="3" stroke-linecap="round"/>
    <ellipse cx="-9" cy="62" rx="5" ry="2" fill="#f59e0b" opacity="0.6"/>
    <ellipse cx="9" cy="62" rx="5" ry="2" fill="#f59e0b" opacity="0.6"/>
    <line x1="-8" y1="-30" x2="-22.08741930965334" y2="-5.086042530601844" stroke="#ef4444" stroke-width="2.5" stroke-linecap="round"/>
    <line x1="8" y1="-30" x2="23.53104163147509" y2="-4.636192615143955" stroke="#ef4444" stroke-width="2.5" stroke-linecap="round"/>
  </g><g transform="translate(409.70219978829846,188) scale(0.8224493546877056)">
    <ellipse cx="0" cy="-52" rx="9" ry="11" fill="#f59e0b"/>
    <path d="M-3,-63 Q-14,-50 -8,-16.172208913369104" stroke="#f59e0b" stroke-width="3" fill="none" stroke-linecap="round"/>
    <path d="M2,-63 Q8,-48 4,-19.172208913369104" stroke="#f59e0b" stroke-width="2.5" fill="none" stroke-linecap="round"/>
    <path d="M-8,-41 Q-10,-20 -6,0 Q-2,15 0,25 Q2,15 6,0 Q10,-20 8,-41 Z" fill="#f59e0b"/>
    <path d="M-6,0 Q-12,10 -8,25 L0,25 Z" fill="#ef4444" opacity="0.3"/>
    <path d="M6,0 Q12,10 8,25 L0,25 Z" fill="#ef4444" opacity="0.3"/>
    <line x1="-2" y1="25" x2="-8" y2="60" stroke="#f59e0b" stroke-width="3" stroke-linecap="round"/>
    <line x1="2" y1="25" x2="8" y2="60" stroke="#f59e0b" stroke-width="3" stroke-linecap="round"/>
    <ellipse cx="-9" cy="62" rx="5" ry="2" fill="#ef4444" opacity="0.6"/>
    <ellipse cx="9" cy="62" rx="5" ry="2" fill="#ef4444" opacity="0.6"/>
    <line x1="-8" y1="-30" x2="-24.761084191966802" y2="-6.69395939563401" stroke="#f59e0b" stroke-width="2.5" stroke-linecap="round"/>
    <line x1="8" y1="-30" x2="26.384510206524283" y2="-11.61793578416109" stroke="#f59e0b" stroke-width="2.5" stroke-linecap="round"/>
  </g>
  <rect x="0" y="308" width="500" height="32" fill="#0d0d1a" opacity="0.5"/>
</svg>