<svg xmlns="http://www.w3.org/2000/svg" viewBox="0 0 500 340" width="500" height="340">
  <defs>
    <linearGradient id="bg_7229" x1="0%" y1="0%" x2="100%" y2="100%">
      <stop offset="0%" style="stop-color:#0a0810"/>
      <stop offset="100%" style="stop-color:#1a0e1a"/>
    </linearGradient>
  </defs>
  <rect width="500" height="340" fill="url(#bg_7229)"/>
  <rect x="5.552626848220825" y="182.55217514932156" width="72.25029364228249" height="137.44782485067844" fill="#1a0e1a" opacity="0.44812124460004266" rx="2"/>
  <rect x="10.552626848220825" y="192.55217514932156" width="4" height="5" fill="#d97706" opacity="0.17106153843924404"/>
  <rect x="22.552626848220825" y="192.55217514932156" width="4" height="5" fill="#d97706" opacity="0.25387242776341734"/>
  <rect x="46.552626848220825" y="192.55217514932156" width="4" height="5" fill="#d97706" opacity="0.11182934227399528"/>
  <rect x="70.55262684822083" y="192.55217514932156" width="4" height="5" fill="#d97706" opacity="0.26952737546525896"/>
  <rect x="10.552626848220825" y="216.62026339909062" width="4" height="5" fill="#d97706" opacity="0.19761623078957202"/>
  <rect x="34.552626848220825" y="216.62026339909062" width="4" height="5" fill="#d97706" opacity="0.15621306132525206"/>
  <rect x="46.552626848220825" y="236.13244576845318" width="4" height="5" fill="#d97706" opacity="0.13033780781552196"/>
  <rect x="70.55262684822083" y="236.13244576845318" width="4" height="5" fill="#d97706" opacity="0.22986965682357552"/>
  <rect x="22.552626848220825" y="257.5074690533802" width="4" height="5" fill="#d97706" opacity="0.150145596312359"/>
  <rect x="46.552626848220825" y="257.5074690533802" width="4" height="5" fill="#d97706" opacity="0.15626428318209948"/>
  <rect x="58.552626848220825" y="257.5074690533802" width="4" height="5" fill="#d97706" opacity="0.26661288733594124"/>
  <rect x="70.55262684822083" y="257.5074690533802" width="4" height="5" fill="#d97706" opacity="0.2429163237567991"/>
  <rect x="22.552626848220825" y="277.1299795457162" width="4" height="5" fill="#d97706" opacity="0.1604515785817057"/>
  <rect x="34.552626848220825" y="277.1299795457162" width="4" height="5" fill="#d97706" opacity="0.19527888759039344"/>
  <rect x="58.552626848220825" y="277.1299795457162" width="4" height="5" fill="#d97706" opacity="0.22371675651520492"/>
  <rect x="70.55262684822083" y="277.1299795457162" width="4" height="5" fill="#d97706" opacity="0.13871198385022582"/>
  <rect x="10.552626848220825" y="298.20942408870906" width="4" height="5" fill="#d97706" opacity="0.2789502657949925"/>
  <rect x="70.55262684822083" y="298.20942408870906" width="4" height="5" fill="#d97706" opacity="0.15292745134793223"/>
  <rect x="63.817126012872905" y="227.4145257845521" width="34.79301234707236" height="92.5854742154479" fill="#1a0e1a" opacity="0.41021957723423835" rx="2"/>
  <rect x="68.8171260128729" y="237.4145257845521" width="4" height="5" fill="#d97706" opacity="0.22162167336791755"/>
  <rect x="92.8171260128729" y="237.4145257845521" width="4" height="5" fill="#d97706" opacity="0.10673441677354277"/>
  <rect x="68.8171260128729" y="260.50438737729564" width="4" height="5" fill="#d97706" opacity="0.2708373401779681"/>
  <rect x="68.8171260128729" y="275.6416098261252" width="4" height="5" fill="#d97706" opacity="0.2967144291382283"/>
  <rect x="80.8171260128729" y="275.6416098261252" width="4" height="5" fill="#d97706" opacity="0.2701290033757687"/>
  <rect x="92.8171260128729" y="275.6416098261252" width="4" height="5" fill="#d97706" opacity="0.1677358390763402"/>
  <rect x="92.8171260128729" y="293.90214315382764" width="4" height="5" fill="#d97706" opacity="0.2451846993993968"/>
  <rect x="151.7740647564642" y="231.33211888372898" width="49.76765595842153" height="88.66788111627102" fill="#1a0e1a" opacity="0.304715132410638" rx="2"/>
  <rect x="168.7740647564642" y="241.33211888372898" width="4" height="5" fill="#d97706" opacity="0.2663827176205814"/>
  <rect x="192.7740647564642" y="241.33211888372898" width="4" height="5" fill="#d97706" opacity="0.15023535788059236"/>
  <rect x="168.7740647564642" y="257.06659043673426" width="4" height="5" fill="#d97706" opacity="0.15269343731924892"/>
  <rect x="180.7740647564642" y="257.06659043673426" width="4" height="5" fill="#d97706" opacity="0.1087254940532148"/>
  <rect x="156.7740647564642" y="275.82763379905373" width="4" height="5" fill="#d97706" opacity="0.11594554795883596"/>
  <rect x="168.7740647564642" y="275.82763379905373" width="4" height="5" fill="#d97706" opacity="0.16791402068920436"/>
  <rect x="180.7740647564642" y="275.82763379905373" width="4" height="5" fill="#d97706" opacity="0.17693027718923987"/>
  <rect x="192.7740647564642" y="275.82763379905373" width="4" height="5" fill="#d97706" opacity="0.14602163238450885"/>
  <rect x="156.7740647564642" y="292.68672126578167" width="4" height="5" fill="#d97706" opacity="0.17609414760954678"/>
  <rect x="180.7740647564642" y="292.68672126578167" width="4" height="5" fill="#d97706" opacity="0.22382529308088125"/>
  <rect x="188.4311278956011" y="235.01781787723303" width="72.62795099057257" height="84.98218212276697" fill="#1a0e1a" opacity="0.45482498283963646" rx="2"/>
  <rect x="217.4311278956011" y="245.01781787723303" width="4" height="5" fill="#d97706" opacity="0.27308154404163365"/>
  <rect x="229.4311278956011" y="245.01781787723303" width="4" height="5" fill="#d97706" opacity="0.15401567416265607"/>
  <rect x="205.4311278956011" y="261.2336475891061" width="4" height="5" fill="#d97706" opacity="0.2698152928147465"/>
  <rect x="229.4311278956011" y="261.2336475891061" width="4" height="5" fill="#d97706" opacity="0.12464557592757047"/>
  <rect x="241.4311278956011" y="261.2336475891061" width="4" height="5" fill="#d97706" opacity="0.2101174658164382"/>
  <rect x="253.4311278956011" y="261.2336475891061" width="4" height="5" fill="#d97706" opacity="0.2585117481183261"/>
  <rect x="193.4311278956011" y="284.1680553974584" width="4" height="5" fill="#d97706" opacity="0.1841373565606773"/>
  <rect x="217.4311278956011" y="284.1680553974584" width="4" height="5" fill="#d97706" opacity="0.29312296044081454"/>
  <rect x="229.4311278956011" y="284.1680553974584" width="4" height="5" fill="#d97706" opacity="0.24406646764837206"/>
  <rect x="253.4311278956011" y="284.1680553974584" width="4" height="5" fill="#d97706" opacity="0.18702888600528242"/>
  <rect x="193.4311278956011" y="309.0391273703426" width="4" height="5" fill="#d97706" opacity="0.21671805838122965"/>
  <rect x="205.4311278956011" y="309.0391273703426" width="4" height="5" fill="#d97706" opacity="0.1862481217365712"/>
  <rect x="217.4311278956011" y="309.0391273703426" width="4" height="5" fill="#d97706" opacity="0.11083260355517269"/>
  <rect x="229.4311278956011" y="309.0391273703426" width="4" height="5" fill="#d97706" opacity="0.13691686149686577"/>
  <rect x="241.4311278956011" y="309.0391273703426" width="4" height="5" fill="#d97706" opacity="0.2942431215196848"/>
  <rect x="253.4311278956011" y="309.0391273703426" width="4" height="5" fill="#d97706" opacity="0.2990516087040305"/>
  <rect x="263.3645591302775" y="223.0646352097392" width="65.02872632816434" height="96.93536479026079" fill="#1a0e1a" opacity="0.5670433651423081" rx="2"/>
  <rect x="268.3645591302775" y="233.0646352097392" width="4" height="5" fill="#d97706" opacity="0.1734942874405533"/>
  <rect x="292.3645591302775" y="233.0646352097392" width="4" height="5" fill="#d97706" opacity="0.21616641357541086"/>
  <rect x="304.3645591302775" y="233.0646352097392" width="4" height="5" fill="#d97706" opacity="0.19594569257460537"/>
  <rect x="316.3645591302775" y="233.0646352097392" width="4" height="5" fill="#d97706" opacity="0.1994106125086546"/>
  <rect x="268.3645591302775" y="250.44109435984865" width="4" height="5" fill="#d97706" opacity="0.16064082975499333"/>
  <rect x="292.3645591302775" y="250.44109435984865" width="4" height="5" fill="#d97706" opacity="0.12807660396210852"/>
  <rect x="316.3645591302775" y="250.44109435984865" width="4" height="5" fill="#d97706" opacity="0.10870592291466892"/>
  <rect x="268.3645591302775" y="269.4115295750089" width="4" height="5" fill="#d97706" opacity="0.1811481006909162"/>
  <rect x="292.3645591302775" y="269.4115295750089" width="4" height="5" fill="#d97706" opacity="0.27275515925139193"/>
  <rect x="304.3645591302775" y="269.4115295750089" width="4" height="5" fill="#d97706" opacity="0.2691914442926645"/>
  <rect x="316.3645591302775" y="269.4115295750089" width="4" height="5" fill="#d97706" opacity="0.12082750108093024"/>
  <rect x="268.3645591302775" y="289.3289032182656" width="4" height="5" fill="#d97706" opacity="0.17597396769560875"/>
  <rect x="292.3645591302775" y="289.3289032182656" width="4" height="5" fill="#d97706" opacity="0.13528109043836595"/>
  <rect x="304.3645591302775" y="289.3289032182656" width="4" height="5" fill="#d97706" opacity="0.15678089568391443"/>
  <rect x="316.3645591302775" y="289.3289032182656" width="4" height="5" fill="#d97706" opacity="0.22933514784090223"/>
  <rect x="268.3645591302775" y="309.0382168558426" width="4" height="5" fill="#d97706" opacity="0.2975016336888075"/>
  <rect x="280.3645591302775" y="309.0382168558426" width="4" height="5" fill="#d97706" opacity="0.22769647287204864"/>
  <rect x="316.3645591302775" y="309.0382168558426" width="4" height="5" fill="#d97706" opacity="0.18621136941947045"/>
  <rect x="320.4507714114152" y="185.77503576874733" width="31.040946934372187" height="134.22496423125267" fill="#1a0e1a" opacity="0.3143205843865871" rx="2"/>
  <rect x="325.4507714114152" y="195.77503576874733" width="4" height="5" fill="#d97706" opacity="0.22292673108167949"/>
  <rect x="337.4507714114152" y="195.77503576874733" width="4" height="5" fill="#d97706" opacity="0.14543139627203347"/>
  <rect x="337.4507714114152" y="212.48512780060992" width="4" height="5" fill="#d97706" opacity="0.29867959171533587"/>
  <rect x="325.4507714114152" y="236.24980760272592" width="4" height="5" fill="#d97706" opacity="0.19031667886301876"/>
  <rect x="337.4507714114152" y="236.24980760272592" width="4" height="5" fill="#d97706" opacity="0.1291531364899129"/>
  <rect x="325.4507714114152" y="256.60047150216997" width="4" height="5" fill="#d97706" opacity="0.256560011440888"/>
  <rect x="337.4507714114152" y="256.60047150216997" width="4" height="5" fill="#d97706" opacity="0.18374888664111497"/>
  <rect x="325.4507714114152" y="279.64297586353496" width="4" height="5" fill="#d97706" opacity="0.1661166829057038"/>
  <rect x="337.4507714114152" y="300.2536676125601" width="4" height="5" fill="#d97706" opacity="0.24307248871773482"/>
  <rect x="388.83925347821787" y="165.47811649739742" width="86.00315399933606" height="154.52188350260258" fill="#1a0e1a" opacity="0.37208691732957955" rx="2"/>
  <rect x="393.83925347821787" y="175.47811649739742" width="4" height="5" fill="#d97706" opacity="0.2211605945136398"/>
  <rect x="465.83925347821787" y="175.47811649739742" width="4" height="5" fill="#d97706" opacity="0.1689280583523214"/>
  <rect x="429.83925347821787" y="197.32159748207778" width="4" height="5" fill="#d97706" opacity="0.10039793881587684"/>
  <rect x="441.83925347821787" y="197.32159748207778" width="4" height="5" fill="#d97706" opacity="0.14955050610005857"/>
  <rect x="453.83925347821787" y="197.32159748207778" width="4" height="5" fill="#d97706" opacity="0.10604751002974809"/>
  <rect x="393.83925347821787" y="216.11144764581695" width="4" height="5" fill="#d97706" opacity="0.2467535113915801"/>
  <rect x="405.83925347821787" y="216.11144764581695" width="4" height="5" fill="#d97706" opacity="0.1992854330688715"/>
  <rect x="417.83925347821787" y="216.11144764581695" width="4" height="5" fill="#d97706" opacity="0.2262864009011537"/>
  <rect x="429.83925347821787" y="216.11144764581695" width="4" height="5" fill="#d97706" opacity="0.16632270701229573"/>
  <rect x="441.83925347821787" y="216.11144764581695" width="4" height="5" fill="#d97706" opacity="0.22017529238946737"/>
  <rect x="453.83925347821787" y="216.11144764581695" width="4" height="5" fill="#d97706" opacity="0.20442258114926518"/>
  <rect x="465.83925347821787" y="216.11144764581695" width="4" height="5" fill="#d97706" opacity="0.21247421079315246"/>
  <rect x="405.83925347821787" y="232.87851973669603" width="4" height="5" fill="#d97706" opacity="0.2832227204460651"/>
  <rect x="417.83925347821787" y="232.87851973669603" width="4" height="5" fill="#d97706" opacity="0.2960140434559435"/>
  <rect x="393.83925347821787" y="252.19812895869836" width="4" height="5" fill="#d97706" opacity="0.1929867929313332"/>
  <rect x="417.83925347821787" y="252.19812895869836" width="4" height="5" fill="#d97706" opacity="0.22065835283137858"/>
  <rect x="453.83925347821787" y="252.19812895869836" width="4" height="5" fill="#d97706" opacity="0.1636208841111511"/>
  <rect x="465.83925347821787" y="252.19812895869836" width="4" height="5" fill="#d97706" opacity="0.29720686795189977"/>
  <rect x="393.83925347821787" y="268.37777182227" width="4" height="5" fill="#d97706" opacity="0.22784346519038082"/>
  <rect x="417.83925347821787" y="268.37777182227" width="4" height="5" fill="#d97706" opacity="0.10230222051031888"/>
  <rect x="465.83925347821787" y="268.37777182227" width="4" height="5" fill="#d97706" opacity="0.2466231042519212"/>
  <rect x="393.83925347821787" y="286.4039457542822" width="4" height="5" fill="#d97706" opacity="0.21416353159584106"/>
  <rect x="417.83925347821787" y="286.4039457542822" width="4" height="5" fill="#d97706" opacity="0.21758880456909538"/>
  <rect x="429.83925347821787" y="286.4039457542822" width="4" height="5" fill="#d97706" opacity="0.2753760556690395"/>
  <rect x="441.83925347821787" y="286.4039457542822" width="4" height="5" fill="#d97706" opacity="0.12935177478939297"/>
  <rect x="453.83925347821787" y="286.4039457542822" width="4" height="5" fill="#d97706" opacity="0.27942963019013406"/>
  <rect x="393.83925347821787" y="307.48383675003424" width="4" height="5" fill="#d97706" opacity="0.12747905254364014"/>
  <rect x="417.83925347821787" y="307.48383675003424" width="4" height="5" fill="#d97706" opacity="0.21233268366195263"/>
  <rect x="429.83925347821787" y="307.48383675003424" width="4" height="5" fill="#d97706" opacity="0.28090306040830915"/>
  <rect x="441.83925347821787" y="307.48383675003424" width="4" height="5" fill="#d97706" opacity="0.2574024857021868"/>
  <rect x="465.83925347821787" y="307.48383675003424" width="4" height="5" fill="#d97706" opacity="0.21115643256343902"/>
  <line x1="125" y1="0" x2="99.50461192987859" y2="204" stroke="#d97706" stroke-width="20" opacity="0.04"/>
  <line x1="250" y1="0" x2="225.02291213721037" y2="204" stroke="#d97706" stroke-width="20" opacity="0.04"/>
  <line x1="375" y1="0" x2="368.65525994449854" y2="204" stroke="#d97706" stroke-width="20" opacity="0.04"/>
  <circle cx="46.61089973524213" cy="41.86764432862401" r="1.2640189584344625" fill="#fff" opacity="0.5937750225886702"/>
  <circle cx="392.3497392097488" cy="158.57225494040176" r="1.0643995576538146" fill="#fff" opacity="0.4462470594327897"/>
  <circle cx="282.4183494085446" cy="108.22939511435106" r="1.931555591057986" fill="#fff" opacity="0.3121475287945941"/>
  <circle cx="6.121697835624218" cy="34.78817186783999" r="1.274939495138824" fill="#fff" opacity="0.6895851352484896"/>
  <circle cx="323.9817572757602" cy="222.2586922440678" r="1.1206958331167698" fill="#fff" opacity="0.21962851453572513"/>
  <circle cx="0.4538188222795725" cy="216.93601699965075" r="1.575807511806488" fill="#fff" opacity="0.6575320250587537"/>
  <circle cx="264.6584151079878" cy="231.0005901851691" r="1.7965870057232678" fill="#fff" opacity="0.3204560825135559"/>
  <circle cx="95.2241305494681" cy="16.494615964125842" r="0.7140272054821253" fill="#fff" opacity="0.41132480585947634"/>
  <circle cx="252.20680120401084" cy="106.72315340535715" r="0.6608794978819788" fill="#fff" opacity="0.2946184552740306"/>
  <circle cx="206.5069831442088" cy="16.774237505160272" r="1.486767622642219" fill="#fff" opacity="0.5818320104619488"/>
  <circle cx="79.32048721704632" cy="219.09787019295618" r="0.7634655931033194" fill="#fff" opacity="0.5689886913634836"/>
  <circle cx="91.48432093206793" cy="91.31435656826943" r="1.250338093843311" fill="#fff" opacity="0.44939474638085813"/>
  <rect x="0" y="315" width="500" height="25" fill="#0a0a14"/>
  <ellipse cx="388.67153401952237" cy="320" rx="26.81847435189411" ry="4" fill="#d97706" opacity="0.10640876558609308"/>
  <ellipse cx="403.97504589054734" cy="320" rx="65.36598321283236" ry="4" fill="#d97706" opacity="0.20686930885538457"/>
  <ellipse cx="76.09150814823806" cy="320" rx="41.70970533043146" ry="4" fill="#d97706" opacity="0.16555166214704514"/>
  <g transform="translate(154.83142219639072,267.80253424542025) scale(0.9133027695119381)">
    <ellipse cx="0" cy="-52" rx="9" ry="11" fill="#d97706"/>
    <path d="M-3,-63 Q-14,-52 -10,-38 L-12,-30" stroke="#d97706" stroke-width="4" fill="none" stroke-linecap="round"/>
     <path d="M2,-63 Q12,-50 10,-36 L11,-28" stroke="#d97706" stroke-width="3.5" fill="none" stroke-linecap="round"/>
    <path d="M-7,-41 Q-9,-25 -7,-15 L7,-15 Q9,-25 7,-41 Z" fill="#dc2626"/>
     <path d="M-8,-12 Q-10,5 -14,28 L14,28 Q10,5 8,-12 Z" fill="#d97706" opacity="0.8"/>
    <line x1="-2" y1="25" x2="-8" y2="60" stroke="#d97706" stroke-width="3" stroke-linecap="round"/>
    <line x1="2" y1="25" x2="8" y2="60" stroke="#d97706" stroke-width="3" stroke-linecap="round"/>
    <ellipse cx="-8" cy="62" rx="6" ry="2.5" fill="#dc2626" opacity="0.7"/>
    <ellipse cx="8" cy="62" rx="6" ry="2.5" fill="#dc2626" opacity="0.7"/>
    <line x1="-8" y1="-30" x2="-20" y2="-5" stroke="#d97706" stroke-width="2.5" stroke-linecap="round"/>
    <line x1="8" y1="-30" x2="28" y2="-25" stroke="#d97706" stroke-width="2.5" stroke-linecap="round"/>
    
  </g><g transform="translate(342.91086804665,268.2272199098952) scale(0.8698561291210354)">
    <ellipse cx="0" cy="-52" rx="9" ry="11" fill="#dc2626"/>
    <path d="M-3,-63 Q-16,-50 -12,-10 Q-14,5 -10,15" stroke="#dc2626" stroke-width="3" fill="none" stroke-linecap="round"/>
     <path d="M2,-63 Q10,-48 8,-5 Q10,10 8,20" stroke="#dc2626" stroke-width="2.5" fill="none" stroke-linecap="round"/>
    <path d="M-7,-41 Q-9,-25 -7,-15 L7,-15 Q9,-25 7,-41 Z" fill="#d97706"/>
     <path d="M-8,-12 Q-10,5 -14,28 L14,28 Q10,5 8,-12 Z" fill="#dc2626" opacity="0.8"/>
    <line x1="-2" y1="25" x2="-14" y2="60" stroke="#dc2626" stroke-width="3" stroke-linecap="round"/>
    <line x1="2" y1="25" x2="14" y2="60" stroke="#dc2626" stroke-width="3" stroke-linecap="round"/>
    <ellipse cx="-16" cy="62" rx="6" ry="2.5" fill="#d97706" opacity="0.7"/>
    <ellipse cx="16" cy="62" rx="6" ry="2.5" fill="#d97706" opacity="0.7"/>
    <line x1="-8" y1="-30" x2="-24" y2="-15" stroke="#dc2626" stroke-width="2.5" stroke-linecap="round"/>
    <line x1="8" y1="-30" x2="20" y2="-8" stroke="#dc2626" stroke-width="2.5" stroke-linecap="round"/>
    
  </g>
  <rect x="430" y="12" width="58" height="22" rx="4" fill="#d97706" opacity="0.8"/>
  <text x="459" y="28" text-anchor="middle" font-family="sans-serif" font-size="10" font-weight="700" fill="#fff">NIGHT</text>
  <rect x="75" y="21" width="350" height="30" rx="6" fill="#0a0810" opacity="0.7" stroke="#d97706" stroke-width="1.5"/>
  <text x="250" y="41" text-anchor="middle" font-family="sans-serif" font-size="16" font-weight="700" fill="#d97706" opacity="0.9">잠실 헤커 나이트</text>
</svg>