<svg xmlns="http://www.w3.org/2000/svg" viewBox="0 0 1200 630" width="1200" height="630">
  <defs><linearGradient id="og_21507" x1="0%" y1="0%" x2="100%" y2="100%">
    <stop offset="0%" style="stop-color:#0a080c"/><stop offset="100%" style="stop-color:#1a0c14"/>
  </linearGradient></defs>
  <rect width="1200" height="630" fill="url(#og_21507)"/>
  <circle cx="674.5994894765317" cy="191.62044535623863" r="69.52425896655768" fill="#f59e0b" opacity="0.07709368708543479"/>
  <circle cx="493.4975671581924" cy="141.18864436866716" r="42.51597644761205" fill="#c2410c" opacity="0.03945940081961453"/>
  <circle cx="843.0611302144825" cy="141.61579334177077" r="40.972034158185124" fill="#c2410c" opacity="0.03702914206776768"/>
  <circle cx="1022.0998392440379" cy="52.75533964857459" r="68.20167801808566" fill="#c2410c" opacity="0.0701351273455657"/>
  <circle cx="63.69783561676741" cy="602.7325615659356" r="48.307502316311" fill="#f59e0b" opacity="0.08161115702707321"/>
  <circle cx="1008.8207202963531" cy="496.182052383665" r="60.20757917314768" fill="#fed7aa" opacity="0.08532419204013422"/>
  <circle cx="383.49839905276895" cy="144.90126322489232" r="40.30430561397225" fill="#fed7aa" opacity="0.07302203313214706"/>
  <circle cx="364.8301471956074" cy="548.7174357217737" r="36.04944721329957" fill="#fed7aa" opacity="0.09622501487378031"/>
  <circle cx="165.7180747948587" cy="266.82214993983507" r="73.86026197113097" fill="#c2410c" opacity="0.036585359256714585"/>
  <circle cx="1164.6530653350055" cy="51.060905295889825" r="59.55854343250394" fill="#fed7aa" opacity="0.04208190681878477"/>
  <circle cx="66.92587975412607" cy="287.38168864510953" r="48.48784262314439" fill="#c2410c" opacity="0.08259991232305766"/>
  <circle cx="315.4061537235975" cy="569.6631015068851" r="67.89576530456543" fill="#fed7aa" opacity="0.06294258203124628"/>
  <circle cx="820.6794809550047" cy="324.7263404284604" r="61.28735834732652" fill="#f59e0b" opacity="0.07695335726952181"/>
  <circle cx="1038.973727915436" cy="586.6546258656308" r="55.90969041455537" fill="#fed7aa" opacity="0.08690470019122587"/>
  <circle cx="776.0342817753553" cy="141.81461493484676" r="68.60028878320009" fill="#fed7aa" opacity="0.06365588074782863"/>
  <circle cx="23.41205533593893" cy="550.4925444256514" r="43.4677744936198" fill="#c2410c" opacity="0.07631168319610879"/>
  <circle cx="665.3270331211388" cy="453.465282660909" r="64.87019725609571" fill="#f59e0b" opacity="0.09240630943560973"/>
  <circle cx="1196.8514336273074" cy="507.0434206025675" r="31.409271648153663" fill="#c2410c" opacity="0.07915365797933191"/><g transform="translate(240,472.5) scale(1.8015722633339466)">
    <ellipse cx="0" cy="-52" rx="9" ry="11" fill="#f59e0b"/>
    <path d="M-3,-63 Q-18,-45 -8,-25 Q-16,-5 -10,15" stroke="#f59e0b" stroke-width="3" fill="none" stroke-linecap="round"/>
     <path d="M2,-63 Q14,-42 6,-22 Q12,-2 8,18" stroke="#f59e0b" stroke-width="2.5" fill="none" stroke-linecap="round"/>
    <path d="M-8,-41 Q-10,-20 -6,0 Q-8,12 -14,30 L14,30 Q8,12 6,0 Q10,-20 8,-41 Z" fill="#c2410c"/>
     <path d="M-6,0 L-14,30 L0,30 Z" fill="#f59e0b" opacity="0.2"/>
    <line x1="-2" y1="25" x2="-14" y2="60" stroke="#f59e0b" stroke-width="3" stroke-linecap="round"/>
    <line x1="2" y1="25" x2="14" y2="60" stroke="#f59e0b" stroke-width="3" stroke-linecap="round"/>
    <ellipse cx="-16" cy="62" rx="6" ry="2.5" fill="#c2410c" opacity="0.7"/>
    <ellipse cx="16" cy="62" rx="6" ry="2.5" fill="#c2410c" opacity="0.7"/>
    <line x1="-8" y1="-30" x2="-24" y2="-15" stroke="#f59e0b" stroke-width="2.5" stroke-linecap="round"/>
    <line x1="8" y1="-30" x2="20" y2="-8" stroke="#f59e0b" stroke-width="2.5" stroke-linecap="round"/>
    
  </g><g transform="translate(960,472.5) scale(2.1509491709992288)">
    <ellipse cx="0" cy="-52" rx="9" ry="11" fill="#c2410c"/>
    <path d="M-3,-63 Q-10,-58 -6,-50" stroke="#c2410c" stroke-width="3" fill="none" stroke-linecap="round"/>
     <circle cx="2" cy="-68" r="6" fill="#c2410c" opacity="0.8"/>
     <path d="M2,-63 Q8,-60 5,-52" stroke="#c2410c" stroke-width="2.5" fill="none" stroke-linecap="round"/>
    <path d="M-8,-41 Q-10,-20 -6,0 Q-8,12 -14,30 L14,30 Q8,12 6,0 Q10,-20 8,-41 Z" fill="#f59e0b"/>
     <path d="M-6,0 L-14,30 L0,30 Z" fill="#c2410c" opacity="0.2"/>
    <line x1="-2" y1="25" x2="-8" y2="60" stroke="#c2410c" stroke-width="3" stroke-linecap="round"/>
    <line x1="2" y1="25" x2="8" y2="60" stroke="#c2410c" stroke-width="3" stroke-linecap="round"/>
    <ellipse cx="-8" cy="62" rx="6" ry="2.5" fill="#f59e0b" opacity="0.7"/>
    <ellipse cx="8" cy="62" rx="6" ry="2.5" fill="#f59e0b" opacity="0.7"/>
    <line x1="-8" y1="-30" x2="-20" y2="-5" stroke="#c2410c" stroke-width="2.5" stroke-linecap="round"/>
    <line x1="8" y1="-30" x2="28" y2="-25" stroke="#c2410c" stroke-width="2.5" stroke-linecap="round"/>
    
  </g>
  <rect x="180" y="189" width="840" height="220.5" rx="12" fill="#0a080c" opacity="0.75" stroke="#f59e0b" stroke-width="2"/>
  <text x="600" y="283.5" text-anchor="middle" font-family="sans-serif" font-size="52" font-weight="800" fill="#f59e0b">잠실 룩소 나이트</text>
  <text x="600" y="346.5" text-anchor="middle" font-family="sans-serif" font-size="24" fill="#fed7aa" opacity="0.8">잠실 · 나이트</text>
</svg>