<svg xmlns="http://www.w3.org/2000/svg" viewBox="0 0 500 340" width="500" height="340">
  <defs>
    <linearGradient id="bg_28856" x1="0%" y1="0%" x2="0%" y2="100%">
      <stop offset="0%" style="stop-color:#0a0a14"/>
      <stop offset="100%" style="stop-color:#1a1020"/>
    </linearGradient>
  </defs>
  <rect width="500" height="340" fill="url(#bg_28856)"/>
  <circle cx="98.88615482486784" cy="211.28658102825284" r="33.580714931711555" fill="#fbbf24" opacity="0.08192540859803557"/>
  <circle cx="163.3285986026749" cy="332.9509665025398" r="23.077110594138503" fill="#fff" opacity="0.0846170337498188"/>
  <circle cx="115.24166259914637" cy="198.54161825962365" r="21.201062036678195" fill="#fbbf24" opacity="0.07530719390138985"/>
  <circle cx="158.1805149326101" cy="308.63474145997316" r="36.18800589069724" fill="#ef4444" opacity="0.031103343330323694"/>
  <circle cx="340.6215369468555" cy="87.11793090682477" r="15.032693224027753" fill="#ef4444" opacity="0.08572152780368925"/>
  <circle cx="304.8618385801092" cy="78.14705197233707" r="28.811085738241673" fill="#fbbf24" opacity="0.10860033702105283"/>
  <circle cx="344.25859327893704" cy="201.48590642027557" r="47.053587606176734" fill="#ef4444" opacity="0.045436723381280894"/>
  <circle cx="431.5068133873865" cy="133.127632685937" r="27.925952358171344" fill="#fbbf24" opacity="0.08045075146481395"/>
  <circle cx="288.33563695661724" cy="122.54130431916565" r="34.17901368997991" fill="#fbbf24" opacity="0.07679486056789755"/>
  <circle cx="329.0205782977864" cy="38.7655441602692" r="31.163376795127988" fill="#f59e0b" opacity="0.040354164764285085"/>
  <circle cx="289.86359015107155" cy="261.313672256656" r="11.538587922230363" fill="#ef4444" opacity="0.09640861634165049"/>
  <circle cx="18.059162190183997" cy="33.84707399178296" r="27.42304741591215" fill="#ef4444" opacity="0.0364089909568429"/>
  <circle cx="181.30094360094517" cy="159.4567705830559" r="10.580916527658701" fill="#fbbf24" opacity="0.10407961256802083"/>
  <circle cx="379.73385967779905" cy="71.80554209277034" r="30.98445559106767" fill="#fbbf24" opacity="0.044338294472545385"/>
  <circle cx="491.76496046129614" cy="249.04758694581687" r="22.28433227352798" fill="#ef4444" opacity="0.05194011390209198"/>
  <circle cx="319.7426872793585" cy="283.4103069640696" r="47.5712426584214" fill="#fff" opacity="0.04650223860517144"/>
  <circle cx="145.3232930507511" cy="207.32560192700475" r="10.729223668575287" fill="#fbbf24" opacity="0.04430962201207876"/>
  <circle cx="78.92409909982234" cy="282.22021573223174" r="23.95875220373273" fill="#f59e0b" opacity="0.04065415095537901"/>
  <circle cx="426.00892519112676" cy="47.425142927095294" r="39.897171791642904" fill="#fff" opacity="0.08021951664239169"/>
  <circle cx="424.44606544449925" cy="187.3839838593267" r="1.6679627448320389" fill="#fff" opacity="0.20873895885888488"/>
  <circle cx="39.31516804732382" cy="169.79726768145338" r="0.7020707880146801" fill="#fff" opacity="0.6624927139375358"/>
  <circle cx="330.0255876965821" cy="189.60482177045196" r="1.3714091451838613" fill="#fff" opacity="0.33420665240846575"/>
  <circle cx="103.49904571194202" cy="84.28725115582347" r="1.978951326571405" fill="#fff" opacity="0.4462624170584604"/>
  <circle cx="338.50504481233656" cy="150.85096484888345" r="1.8103690617717803" fill="#fff" opacity="0.5362916716141626"/>
  <circle cx="363.99421247188" cy="58.29425705177709" r="2.0319844326004386" fill="#fff" opacity="0.6841252103215083"/>
  <circle cx="100.83561355713755" cy="223.61303947865963" r="2.459662682376802" fill="#fff" opacity="0.575890883966349"/>
  <circle cx="435.11281139217317" cy="169.23757530516014" r="1.1819904684089124" fill="#fff" opacity="0.5451131663750857"/>
  <circle cx="214.77758279070258" cy="166.46928551467136" r="2.0368106006644666" fill="#fff" opacity="0.49905368306208403"/>
  <circle cx="294.2719702841714" cy="205.39981059962884" r="1.1593640446662903" fill="#fff" opacity="0.2629203380085528"/>
  <circle cx="259.5730908215046" cy="190.9374751537107" r="2.385630613192916" fill="#fff" opacity="0.3641953829675913"/>
  <circle cx="288.21779147256166" cy="126.119689558167" r="1.0736813126131892" fill="#fff" opacity="0.39875714753288777"/>
  <rect x="0" y="302" width="500" height="38" fill="#0a0a14"/>
  <ellipse cx="348.0278819333762" cy="307" rx="36.94461270235479" ry="4" fill="#ef4444" opacity="0.15855056210421026"/>
  <ellipse cx="161.1085650511086" cy="307" rx="59.15777232032269" ry="4" fill="#f59e0b" opacity="0.13448661821894348"/>
  <ellipse cx="488.000318990089" cy="307" rx="65.66437343601137" ry="4" fill="#ef4444" opacity="0.1990184287261218"/>
  <g transform="translate(123.62767847022042,290.0604525953531) scale(1.0401098893955352)">
    <ellipse cx="0" cy="-52" rx="9" ry="11" fill="#f59e0b"/>
    <path d="M-3,-63 Q-18,-45 -8,-25 Q-16,-5 -10,15" stroke="#f59e0b" stroke-width="3" fill="none" stroke-linecap="round"/>
     <path d="M2,-63 Q14,-42 6,-22 Q12,-2 8,18" stroke="#f59e0b" stroke-width="2.5" fill="none" stroke-linecap="round"/>
    <path d="M-8,-41 Q-10,-20 -6,0 Q-4,10 -2,20 L2,20 Q4,10 6,0 Q10,-20 8,-41 Z" fill="#ef4444"/>
     <rect x="-9" y="-42" width="18" height="4" rx="1" fill="#f59e0b" opacity="0.5"/>
    <line x1="-2" y1="25" x2="-14" y2="60" stroke="#f59e0b" stroke-width="3" stroke-linecap="round"/>
    <line x1="2" y1="25" x2="14" y2="60" stroke="#f59e0b" stroke-width="3" stroke-linecap="round"/>
    <ellipse cx="-16" cy="62" rx="6" ry="2.5" fill="#ef4444" opacity="0.7"/>
    <ellipse cx="16" cy="62" rx="6" ry="2.5" fill="#ef4444" opacity="0.7"/>
    <line x1="-8" y1="-30" x2="-24" y2="-15" stroke="#f59e0b" stroke-width="2.5" stroke-linecap="round"/>
    <line x1="8" y1="-30" x2="20" y2="-8" stroke="#f59e0b" stroke-width="2.5" stroke-linecap="round"/>
    
  </g><g transform="translate(253.77376910764724,285.3493744833395) scale(0.8723004343919456)">
    <ellipse cx="0" cy="-52" rx="9" ry="11" fill="#ef4444"/>
    <path d="M-3,-63 Q-18,-45 -8,-25 Q-16,-5 -10,15" stroke="#ef4444" stroke-width="3" fill="none" stroke-linecap="round"/>
     <path d="M2,-63 Q14,-42 6,-22 Q12,-2 8,18" stroke="#ef4444" stroke-width="2.5" fill="none" stroke-linecap="round"/>
    <path d="M-7,-41 Q-9,-25 -7,-15 L7,-15 Q9,-25 7,-41 Z" fill="#f59e0b"/>
     <path d="M-8,-12 Q-10,5 -14,28 L14,28 Q10,5 8,-12 Z" fill="#ef4444" opacity="0.8"/>
    <line x1="-2" y1="25" x2="-8" y2="60" stroke="#ef4444" stroke-width="3" stroke-linecap="round"/>
    <line x1="2" y1="25" x2="8" y2="60" stroke="#ef4444" stroke-width="3" stroke-linecap="round"/>
    <ellipse cx="-8" cy="62" rx="6" ry="2.5" fill="#f59e0b" opacity="0.7"/>
    <ellipse cx="8" cy="62" rx="6" ry="2.5" fill="#f59e0b" opacity="0.7"/>
    <line x1="-8" y1="-30" x2="-22" y2="-10" stroke="#ef4444" stroke-width="2.5" stroke-linecap="round"/>
    <line x1="8" y1="-30" x2="18" y2="-5" stroke="#ef4444" stroke-width="2.5" stroke-linecap="round"/>
    
  </g><g transform="translate(372.8767355857417,270.90889907674864) scale(0.8425427243113518)">
    <ellipse cx="0" cy="-52" rx="9" ry="11" fill="#f59e0b"/>
    <path d="M-3,-63 Q-10,-58 -6,-50" stroke="#f59e0b" stroke-width="3" fill="none" stroke-linecap="round"/>
     <circle cx="2" cy="-68" r="6" fill="#f59e0b" opacity="0.8"/>
     <path d="M2,-63 Q8,-60 5,-52" stroke="#f59e0b" stroke-width="2.5" fill="none" stroke-linecap="round"/>
    <path d="M-7,-41 Q-9,-25 -7,-15 L7,-15 Q9,-25 7,-41 Z" fill="#ef4444"/>
     <path d="M-8,-12 Q-10,5 -14,28 L14,28 Q10,5 8,-12 Z" fill="#f59e0b" opacity="0.8"/>
    <line x1="-2" y1="25" x2="-12" y2="60" stroke="#f59e0b" stroke-width="3" stroke-linecap="round"/>
    <line x1="2" y1="25" x2="10" y2="60" stroke="#f59e0b" stroke-width="3" stroke-linecap="round"/>
    <ellipse cx="-14" cy="62" rx="6" ry="2.5" fill="#ef4444" opacity="0.7"/>
    <ellipse cx="12" cy="62" rx="6" ry="2.5" fill="#ef4444" opacity="0.7"/>
    <line x1="-8" y1="-30" x2="-20" y2="-58" stroke="#f59e0b" stroke-width="2.5" stroke-linecap="round"/>
    <line x1="8" y1="-30" x2="22" y2="-55" stroke="#f59e0b" stroke-width="2.5" stroke-linecap="round"/>
    
  </g>
  <rect x="430" y="12" width="58" height="22" rx="4" fill="#f59e0b" opacity="0.8"/>
  <text x="459" y="28" text-anchor="middle" font-family="sans-serif" font-size="10" font-weight="700" fill="#fff">NIGHT</text>
  <rect x="75" y="25" width="350" height="30" rx="6" fill="#0a0a14" opacity="0.7" stroke="#f59e0b" stroke-width="1.5"/>
  <text x="250" y="45" text-anchor="middle" font-family="sans-serif" font-size="16" font-weight="700" fill="#f59e0b" opacity="0.9">수유 샴푸 나이트</text>
</svg>